<mxfile host="app.diagrams.net" modified="2024-02-25T15:14:57.940Z" agent="Mozilla/5.0 (Macintosh; Intel Mac OS X 10_15_7) AppleWebKit/537.36 (KHTML, like Gecko) Chrome/121.0.0.0 Safari/537.36" etag="GoaC8Nb6Ih4946aKS0EW" version="23.1.4" type="device">
  <diagram name="Page-1" id="w6jgo3w18pElQkIvwxHR">
    <mxGraphModel dx="968" dy="624" grid="1" gridSize="10" guides="1" tooltips="1" connect="1" arrows="1" fold="1" page="1" pageScale="1" pageWidth="850" pageHeight="1100" math="0" shadow="0">
      <root>
        <mxCell id="0" />
        <mxCell id="1" parent="0" />
        <mxCell id="Bzk-ISGM82NvutfXo54f-2" value="Auditor" style="shape=umlActor;verticalLabelPosition=bottom;verticalAlign=top;html=1;outlineConnect=0;" vertex="1" parent="1">
          <mxGeometry x="110" y="530" width="30" height="60" as="geometry" />
        </mxCell>
        <mxCell id="Bzk-ISGM82NvutfXo54f-3" value="Postman" style="shape=image;verticalLabelPosition=bottom;labelBackgroundColor=default;verticalAlign=top;aspect=fixed;imageAspect=0;image=data:image/svg+xml,PHN2ZyB4bWxuczp4bGluaz0iaHR0cDovL3d3dy53My5vcmcvMTk5OS94bGluayIgeG1sbnM9Imh0dHA6Ly93d3cudzMub3JnLzIwMDAvc3ZnIiBwcmVzZXJ2ZUFzcGVjdFJhdGlvPSJ4TWlkWU1pZCIgdmVyc2lvbj0iMS4xIiB2aWV3Qm94PSItMS4xOTIwOTI4OTU1MDc4MTI1ZS03IC0xLjE5MjA5Mjg5NTUwNzgxMjVlLTcgMjU2IDI1NS45OTk5Mzg5NjQ4NDM3NSIgaGVpZ2h0PSI3OTkuOTk5ODA5MjY1MTM2NyIgd2lkdGg9IjgwMCI+JiN4YTsgICAgPGc+JiN4YTsgICAgICAgIDxwYXRoIGZpbGw9IiNGRjZDMzciIGQ9Ik0yNTQuOTUzMTE4LDE0NC4yNTMwNzEgQzI2My45MTE1MDQsNzQuMTIxNzEwOCAyMTQuMzg0NDMsMTAuMDA1MjY2OSAxNDQuMzgxMDQ4LDEuMDQ2ODgxNTggQzc0LjM3NzY2NDcsLTcuOTExNTAzOCAxMC4wMDUyNjY5LDQxLjYxNTU2OTYgMS4wNDY4ODE1OCwxMTEuNjE4OTUyIEMtNy45MTE1MDM4LDE4MS42MjIzMzUgNDEuNjE1NTY5NiwyNDUuODY2NzU2IDExMS42MTg5NTIsMjU0Ljk1MzExOCBDMTgxLjc1MDMxMiwyNjMuOTExNTA0IDI0NS44NjY3NTYsMjE0LjM4NDQzIDI1NC45NTMxMTgsMTQ0LjI1MzA3MSBaIj4mI3hhOyYjeGE7PC9wYXRoPiYjeGE7ICAgICAgICA8ZyB0cmFuc2Zvcm09InRyYW5zbGF0ZSg1MC4xODEyMjUsIDQ1LjE5ODkyNCkiPiYjeGE7ICAgICAgICAgICAgPHBhdGggZmlsbD0iI0ZGRkZGRiIgZD0iTTEyNC4wMTg0NDgsMzYuOTg1MzMzOSBMNzAuMDEyMTgyLDkwLjk5MTYgTDU0Ljc4MjkyNjksNzUuNzYyMzQ0OSBDMTA3Ljg5MzM1NCwyMi42NTE5MTczIDExMy4xNDA0MDksMjcuMjU5MDg2OSAxMjQuMDE4NDQ4LDM2Ljk4NTMzMzkgTDEyNC4wMTg0NDgsMzYuOTg1MzMzOSBaIj4mI3hhOyYjeGE7PC9wYXRoPiYjeGE7ICAgICAgICAgICAgPHBhdGggZmlsbD0iI0ZGNkMzNyIgZD0iTTcwLjAxMjE4Miw5Mi4yNzEzNjkzIEM2OS42MjgyNTEyLDkyLjI3MTM2OTMgNjkuMzcyMjk3NCw5Mi4xNDMzOTI0IDY5LjExNjM0MzUsOTEuODg3NDM4NSBMNTMuNzU5MTExNCw3Ni42NTgxODM0IEM1My4yNDcyMDM3LDc2LjE0NjI3NTcgNTMuMjQ3MjAzNyw3NS4zNzg0MTQxIDUzLjc1OTExMTQsNzQuODY2NTA2MyBDMTA3Ljc2NTM3OCwyMC44NjAyNDAyIDExMy4zOTYzNjMsMjUuOTc5MzE3NiAxMjQuNzg2MzEsMzYuMjE3NDcyMyBDMTI1LjA0MjI2NCwzNi40NzM0MjYyIDEyNS4xNzAyNDEsMzYuNzI5MzggMTI1LjE3MDI0MSwzNy4xMTMzMTA4IEMxMjUuMTcwMjQxLDM3LjQ5NzI0MTYgMTI1LjA0MjI2NCwzNy43NTMxOTU1IDEyNC43ODYzMSwzOC4wMDkxNDk0IEw3MC43ODAwNDM2LDkxLjg4NzQzODUgQzcwLjY1MjA2NjcsOTIuMTQzMzkyNCA3MC4yNjgxMzU5LDkyLjI3MTM2OTMgNzAuMDEyMTgyLDkyLjI3MTM2OTMgWiBNNTYuNTc0NjA0LDc1Ljc2MjM0NDkgTDcwLjAxMjE4Miw4OS4xOTk5MjI5IEwxMjIuMDk4Nzk0LDM3LjExMzMxMDggQzExMi42Mjg1MDEsMjguNjY2ODMzMiAxMDYuMjI5NjU0LDI2LjEwNzI5NDUgNTYuNTc0NjA0LDc1Ljc2MjM0NDkgTDU2LjU3NDYwNCw3NS43NjIzNDQ5IFoiPiYjeGE7JiN4YTs8L3BhdGg+JiN4YTsgICAgICAgICAgICA8cGF0aCBmaWxsPSIjRkZGRkZGIiBkPSJNODUuNDk3MzkxLDEwNi40NzY4MDkgTDcwLjc4MDA0MzYsOTEuNzU5NDYxNiBMMTI0Ljc4NjMxLDM3Ljc1MzE5NTUgQzEzOS4yNDc3MDMsNTIuMzQyNTY2IDExNy42MTk2MDEsNzYuMDE4Mjk4NyA4NS40OTczOTEsMTA2LjQ3NjgwOSBaIj4mI3hhOyYjeGE7PC9wYXRoPiYjeGE7ICAgICAgICAgICAgPHBhdGggZmlsbD0iI0ZGNkMzNyIgZD0iTTg1LjQ5NzM5MSwxMDcuNzU2NTc4IEM4NS4xMTM0NjAyLDEwNy43NTY1NzggODQuODU3NTA2NCwxMDcuNjI4NjAxIDg0LjYwMTU1MjUsMTA3LjM3MjY0OCBMNjkuODg0MjA1MSw5Mi42NTUzMDAxIEM2OS42MjgyNTEyLDkyLjM5OTM0NjMgNjkuNjI4MjUxMiw5Mi4xNDMzOTI0IDY5LjYyODI1MTIsOTEuNzU5NDYxNiBDNjkuNjI4MjUxMiw5MS4zNzU1MzA4IDY5Ljc1NjIyODIsOTEuMTE5NTc2OSA3MC4wMTIxODIsOTAuODYzNjIzMSBMMTI0LjAxODQ0OCwzNi44NTczNTcgQzEyNC41MzAzNTYsMzYuMzQ1NDQ5MiAxMjUuMjk4MjE3LDM2LjM0NTQ0OTIgMTI1LjgxMDEyNSwzNi44NTczNTcgQzEyOS4xMzc1MjUsMzkuOTI4ODAzNCAxMzAuOTI5MjAzLDQ0LjI4MDAxOTEgMTMwLjgwMTIyNiw0OC43NTkyMTE4IEMxMzAuNTQ1MjcyLDYyLjk2NDY1MTUgMTE0LjQyMDE3OCw4MS4wMDkzOTkyIDg2LjUyMTIwNjUsMTA3LjM3MjY0OCBDODYuMTM3Mjc1NywxMDcuNjI4NjAxIDg1Ljc1MzM0NDksMTA3Ljc1NjU3OCA4NS40OTczOTEsMTA3Ljc1NjU3OCBMODUuNDk3MzkxLDEwNy43NTY1NzggWiBNNzIuNTcxNzIwNyw5MS43NTk0NjE2IEM4MC43NjIyNDQ1LDEwMC4wNzc5NjIgODQuMjE3NjIxNywxMDMuNDA1MzYzIDg1LjQ5NzM5MSwxMDQuNjg1MTMyIEMxMDYuOTk3NTE2LDg0LjIwODgyMjUgMTI3Ljg1Nzc1Niw2My4yMjA2MDUzIDEyNy45ODU3MzMsNDguNzU5MjExOCBDMTI4LjExMzcxLDQ1LjQzMTgxMTUgMTI2LjgzMzk0MSw0Mi4xMDQ0MTEzIDEyNC42NTgzMzMsMzkuNTQ0ODcyNiBMNzIuNTcxNzIwNyw5MS43NTk0NjE2IFoiPiYjeGE7JiN4YTs8L3BhdGg+JiN4YTsgICAgICAgICAgICA8cGF0aCBmaWxsPSIjRkZGRkZGIiBkPSJNNTUuMDM4ODgwOCw3Ni4xNDYyNzU3IEw2NS45MTY5MjAxLDg3LjAyNDMxNSBDNjYuMTcyODc0LDg3LjI4MDI2ODkgNjYuMTcyODc0LDg3LjUzNjIyMjggNjUuOTE2OTIwMSw4Ny43OTIxNzY3IEM2NS43ODg5NDMyLDg3LjkyMDE1MzYgNjUuNzg4OTQzMiw4Ny45MjAxNTM2IDY1LjY2MDk2NjMsODcuOTIwMTUzNiBMNDMuMTM3MDI1OSw5Mi43ODMyNzcxIEM0MS45ODUyMzM1LDkyLjkxMTI1NCA0MC45NjE0MTgsOTIuMTQzMzkyNCA0MC43MDU0NjQyLDkwLjk5MTYgQzQwLjU3NzQ4NzIsOTAuMzUxNzE1MyA0MC44MzM0NDExLDg5LjcxMTgzMDcgNDEuMjE3MzcxOSw4OS4zMjc4OTk5IEw1NC4yNzEwMTkyLDc2LjI3NDI1MjYgQzU0LjUyNjk3Myw3Ni4wMTgyOTg3IDU0LjkxMDkwMzgsNzUuODkwMzIxOCA1NS4wMzg4ODA4LDc2LjE0NjI3NTcgWiI+JiN4YTsmI3hhOzwvcGF0aD4mI3hhOyAgICAgICAgICAgIDxwYXRoIGZpbGw9IiNGRjZDMzciIGQ9Ik00Mi43NTMwOTUxLDk0LjA2MzA0NjQgQzQwLjgzMzQ0MTEsOTQuMDYzMDQ2NCAzOS40MjU2OTQ4LDkyLjUyNzMyMzIgMzkuNDI1Njk0OCw5MC42MDc2NjkyIEMzOS40MjU2OTQ4LDg5LjcxMTgzMDcgMzkuODA5NjI1Niw4OC44MTU5OTIxIDQwLjQ0OTUxMDMsODguMTc2MTA3NSBMNTMuNTAzMTU3Niw3NS4xMjI0NjAyIEM1NC4yNzEwMTkyLDc0LjQ4MjU3NTUgNTUuMjk0ODM0Niw3NC40ODI1NzU1IDU2LjA2MjY5NjIsNzUuMTIyNDYwMiBMNjYuOTQwNzM1Niw4Ni4wMDA0OTk2IEM2Ny43MDg1OTcyLDg2LjY0MDM4NDIgNjcuNzA4NTk3Miw4Ny43OTIxNzY3IDY2Ljk0MDczNTYsODguNTYwMDM4MyBDNjYuNjg0NzgxNyw4OC44MTU5OTIxIDY2LjQyODgyNzksODguOTQzOTY5MSA2Ni4wNDQ4OTcxLDg5LjA3MTk0NiBMNDMuNTIwOTU2Nyw5My45MzUwNjk1IEM0My4yNjUwMDI4LDkzLjkzNTA2OTUgNDMuMDA5MDQ5LDk0LjA2MzA0NjQgNDIuNzUzMDk1MSw5NC4wNjMwNDY0IEw0Mi43NTMwOTUxLDk0LjA2MzA0NjQgWiBNNTQuNjU0OTUsNzcuNTU0MDIxOSBMNDIuMTEzMjEwNCw5MC4wOTU3NjE1IEM0MS44NTcyNTY2LDkwLjM1MTcxNTMgNDEuNzI5Mjc5Niw5MC43MzU2NDYxIDQxLjk4NTIzMzUsOTEuMTE5NTc2OSBDNDIuMTEzMjEwNCw5MS41MDM1MDc3IDQyLjQ5NzE0MTIsOTEuNjMxNDg0NyA0Mi44ODEwNzIsOTEuNTAzNTA3NyBMNjMuOTk3MjY2MSw4Ni44OTYzMzgxIEw1NC42NTQ5NSw3Ny41NTQwMjE5IFoiPiYjeGE7JiN4YTs8L3BhdGg+JiN4YTsgICAgICAgICAgICA8cGF0aCBmaWxsPSIjRkZGRkZGIiBkPSJNMTUyLjU1NzMwNCw3LjAzODczMTM2IEMxNDQuMzY2NzgxLC0wLjg5NTgzODUzNyAxMzEuMTg1MTU2LC0wLjYzOTg4NDY2OSAxMjMuMjUwNTg3LDcuNjc4NjE2MDMgQzExNS4zMTYwMTcsMTUuOTk3MTE2NyAxMTUuNTcxOTcsMjkuMDUwNzY0IDEyMy44OTA0NzEsMzYuOTg1MzMzOSBDMTMwLjY3MzI0OSw0My41MTIxNTc1IDE0MC45MTE0MDMsNDQuNjYzOTQ5OSAxNDguOTczOTUsMzkuODAwODI2NCBMMTM0LjM4NDU4LDI1LjIxMTQ1NiBMMTUyLjU1NzMwNCw3LjAzODczMTM2IFoiPiYjeGE7JiN4YTs8L3BhdGg+JiN4YTsgICAgICAgICAgICA8cGF0aCBmaWxsPSIjRkY2QzM3IiBkPSJNMTM4LjIyMzg4OCw0NC4wMjQwNjUzIEMxMjYuMDY2MDc5LDQ0LjAyNDA2NTMgMTE2LjIxMTg1NSwzNC4xNjk4NDEzIDExNi4yMTE4NTUsMjIuMDEyMDMyNiBDMTE2LjIxMTg1NSw5Ljg1NDIyMzkxIDEyNi4wNjYwNzksLTEuODE4NjYxNjFlLTE0IDEzOC4yMjM4ODgsLTEuODE4NjYxNjFlLTE0IEMxNDMuODU0ODczLC0xLjgxODY2MTYxZS0xNCAxNDkuMzU3ODgxLDIuMTc1NjA3ODggMTUzLjQ1MzE0Myw2LjE0Mjg5MjgzIEMxNTMuNzA5MDk3LDYuMzk4ODQ2NjkgMTUzLjgzNzA3NCw2LjY1NDgwMDU2IDE1My44MzcwNzQsNy4wMzg3MzEzNiBDMTUzLjgzNzA3NCw3LjQyMjY2MjE3IDE1My43MDkwOTcsNy42Nzg2MTYwMyAxNTMuNDUzMTQzLDcuOTM0NTY5OSBMMTM2LjE3NjI1NywyNS4yMTE0NTYgTDE0OS43NDE4MTIsMzguNzc3MDExIEMxNTAuMjUzNzIsMzkuMjg4OTE4NyAxNTAuMjUzNzIsNDAuMDU2NzgwMyAxNDkuNzQxODEyLDQwLjU2ODY4OCBDMTQ5LjYxMzgzNSw0MC42OTY2NjUgMTQ5LjYxMzgzNSw0MC42OTY2NjUgMTQ5LjQ4NTg1OCw0MC44MjQ2NDE5IEMxNDYuMTU4NDU4LDQyLjg3MjI3MjkgMTQyLjE5MTE3Myw0NC4wMjQwNjUzIDEzOC4yMjM4ODgsNDQuMDI0MDY1MyBaIE0xMzguMjIzODg4LDIuNjg3NTE1NjEgQzEyNy40NzM4MjUsMi42ODc1MTU2MSAxMTguNzcxMzk0LDExLjM4OTk0NzEgMTE4Ljg5OTM3MSwyMi4xNDAwMDk2IEMxMTguODk5MzcxLDMyLjg5MDA3MiAxMjcuNjAxODAyLDQxLjU5MjUwMzUgMTM4LjM1MTg2NSw0MS40NjQ1MjY2IEMxNDEuMjk1MzM0LDQxLjQ2NDUyNjYgMTQ0LjIzODgwNCw0MC44MjQ2NDE5IDE0Ni45MjYzMTksMzkuNDE2ODk1NiBMMTMzLjQ4ODc0MSwyNi4xMDcyOTQ1IEMxMzMuMjMyNzg3LDI1Ljg1MTM0MDYgMTMzLjEwNDgxLDI1LjU5NTM4NjggMTMzLjEwNDgxLDI1LjIxMTQ1NiBDMTMzLjEwNDgxLDI0LjgyNzUyNTIgMTMzLjIzMjc4NywyNC41NzE1NzEzIDEzMy40ODg3NDEsMjQuMzE1NjE3NCBMMTUwLjYzNzY1LDcuMTY2NzA4MyBDMTQ3LjE4MjI3Myw0LjIyMzIzODgyIDE0Mi44MzEwNTcsMi42ODc1MTU2MSAxMzguMjIzODg4LDIuNjg3NTE1NjEgTDEzOC4yMjM4ODgsMi42ODc1MTU2MSBaIj4mI3hhOyYjeGE7PC9wYXRoPiYjeGE7ICAgICAgICAgICAgPHBhdGggZmlsbD0iI0ZGRkZGRiIgZD0iTTE1Mi45NDEyMzUsNy40MjI2NjIxNyBMMTUyLjY4NTI4MSw3LjE2NjcwODMgTDEzNC4zODQ1OCwyNS4yMTE0NTYgTDE0OC44NDU5NzMsMzkuNjcyODQ5NSBDMTUwLjI1MzcyLDM4Ljc3NzAxMSAxNTEuNjYxNDY2LDM3Ljc1MzE5NTUgMTUyLjgxMzI1OCwzNi42MDE0MDMxIEMxNjEuMDAzNzgyLDI4LjUzODg1NjMgMTYxLjAwMzc4MiwxNS40ODUyMDkgMTUyLjk0MTIzNSw3LjQyMjY2MjE3IEwxNTIuOTQxMjM1LDcuNDIyNjYyMTcgWiI+JiN4YTsmI3hhOzwvcGF0aD4mI3hhOyAgICAgICAgICAgIDxwYXRoIGZpbGw9IiNGRjZDMzciIGQ9Ik0xNDguOTczOTUsNDEuMDgwNTk1OCBDMTQ4LjU5MDAxOSw0MS4wODA1OTU4IDE0OC4zMzQwNjYsNDAuOTUyNjE4OCAxNDguMDc4MTEyLDQwLjY5NjY2NSBMMTMzLjQ4ODc0MSwyNi4xMDcyOTQ1IEMxMzMuMjMyNzg3LDI1Ljg1MTM0MDYgMTMzLjEwNDgxLDI1LjU5NTM4NjggMTMzLjEwNDgxLDI1LjIxMTQ1NiBDMTMzLjEwNDgxLDI0LjgyNzUyNTIgMTMzLjIzMjc4NywyNC41NzE1NzEzIDEzMy40ODg3NDEsMjQuMzE1NjE3NCBMMTUxLjY2MTQ2Niw2LjE0Mjg5MjgzIEMxNTIuMTczMzc0LDUuNjMwOTg1MDkgMTUyLjk0MTIzNSw1LjYzMDk4NTA5IDE1My40NTMxNDMsNi4xNDI4OTI4MyBMMTUzLjgzNzA3NCw2LjM5ODg0NjY5IEMxNjIuNDExNTI4LDE0Ljk3MzMwMTMgMTYyLjQxMTUyOCwyOC43OTQ4MTAxIDE1My45NjUwNTEsMzcuNDk3MjQxNiBDMTUyLjY4NTI4MSwzOC43NzcwMTEgMTUxLjI3NzUzNSwzOS45Mjg4MDM0IDE0OS43NDE4MTIsNDAuODI0NjQxOSBDMTQ5LjM1Nzg4MSw0MC45NTI2MTg4IDE0OS4xMDE5MjcsNDEuMDgwNTk1OCAxNDguOTczOTUsNDEuMDgwNTk1OCBMMTQ4Ljk3Mzk1LDQxLjA4MDU5NTggWiBNMTM2LjE3NjI1NywyNS4yMTE0NTYgTDE0OS4xMDE5MjcsMzguMTM3MTI2MyBDMTUwLjEyNTc0MywzNy40OTcyNDE2IDE1MS4xNDk1NTgsMzYuNjAxNDAzMSAxNTEuOTE3NDIsMzUuODMzNTQxNSBDMTU5LjIxMjEwNSwyOC41Mzg4NTYzIDE1OS41OTYwMzYsMTYuNjM3MDAxNCAxNTIuNTU3MzA0LDguOTU4Mzg1MzcgTDEzNi4xNzYyNTcsMjUuMjExNDU2IFoiPiYjeGE7JiN4YTs8L3BhdGg+JiN4YTsgICAgICAgICAgICA8cGF0aCBmaWxsPSIjRkZGRkZGIiBkPSJNMTI2LjE5NDA1NiwzOS4yODg5MTg3IEMxMjMuMTIyNjEsMzYuMjE3NDcyMyAxMTguMTMxNTA5LDM2LjIxNzQ3MjMgMTE1LjA2MDA2MywzOS4yODg5MTg3IEw2Ni44MTI3NTg3LDg3LjUzNjIyMjggTDc0Ljg3NTMwNTUsOTUuNTk4NzY5NiBMMTI1LjkzODEwMiw1MC44MDY4NDI4IEMxMjkuMjY1NTAyLDQ3Ljk5MTM1MDIgMTI5LjUyMTQ1Niw0My4wMDAyNDk4IDEyNi43MDU5NjQsMzkuNjcyODQ5NSBDMTI2LjQ1MDAxLDM5LjU0NDg3MjYgMTI2LjMyMjAzMywzOS40MTY4OTU2IDEyNi4xOTQwNTYsMzkuMjg4OTE4NyBMMTI2LjE5NDA1NiwzOS4yODg5MTg3IFoiPiYjeGE7JiN4YTs8L3BhdGg+JiN4YTsgICAgICAgICAgICA8cGF0aCBmaWxsPSIjRkY2QzM3IiBkPSJNNzQuNzQ3MzI4Niw5Ni44Nzg1MzkgQzc0LjM2MzM5NzgsOTYuODc4NTM5IDc0LjEwNzQ0MzksOTYuNzUwNTYyIDczLjg1MTQ5LDk2LjQ5NDYwODIgTDY1Ljc4ODk0MzIsODguNDMyMDYxMyBDNjUuMjc3MDM1NSw4Ny45MjAxNTM2IDY1LjI3NzAzNTUsODcuMTUyMjkyIDY1Ljc4ODk0MzIsODYuNjQwMzg0MiBMMTE0LjAzNjI0NywzOC4zOTMwODAyIEMxMTcuNjE5NjAxLDM0LjgwOTcyNiAxMjMuMzc4NTYzLDM0LjgwOTcyNiAxMjYuOTYxOTE4LDM4LjM5MzA4MDIgQzEzMC41NDUyNzIsNDEuOTc2NDM0MyAxMzAuNTQ1MjcyLDQ3LjczNTM5NjMgMTI2Ljk2MTkxOCw1MS4zMTg3NTA1IEMxMjYuODMzOTQxLDUxLjQ0NjcyNzQgMTI2LjcwNTk2NCw1MS41NzQ3MDQ0IDEyNi41Nzc5ODcsNTEuNzAyNjgxMyBMNzUuNTE1MTkwMiw5Ni40OTQ2MDgyIEM3NS4zODcyMTMzLDk2Ljc1MDU2MiA3NS4xMzEyNTk0LDk2Ljg3ODUzOSA3NC43NDczMjg2LDk2Ljg3ODUzOSBMNzQuNzQ3MzI4Niw5Ni44Nzg1MzkgWiBNNjguNjA0NDM1OCw4Ny41MzYyMjI4IEw3NC44NzUzMDU1LDkzLjgwNzA5MjUgTDEyNS4wNDIyNjQsNDkuNzgzMDI3MyBDMTI3Ljg1Nzc1Niw0Ny40Nzk0NDI1IDEyOC4xMTM3MSw0My4yNTYyMDM3IDEyNS44MTAxMjUsNDAuNDQwNzExMSBDMTIzLjUwNjU0LDM3LjYyNTIxODYgMTE5LjI4MzMwMiwzNy4zNjkyNjQ3IDExNi40Njc4MDksMzkuNjcyODQ5NSBDMTE2LjMzOTgzMiwzOS44MDA4MjY0IDExNi4yMTE4NTUsMzkuOTI4ODAzNCAxMTUuOTU1OTAxLDQwLjA1Njc4MDMgTDY4LjYwNDQzNTgsODcuNTM2MjIyOCBaIj4mI3hhOyYjeGE7PC9wYXRoPiYjeGE7ICAgICAgICAgICAgPHBhdGggZmlsbD0iI0ZGRkZGRiIgZD0iTTI5LjgyNzQyNDgsMTQyLjQzODMyNyBDMjkuMzE1NTE3MSwxNDIuNjk0MjgxIDI5LjA1OTU2MzIsMTQzLjIwNjE4OSAyOS4xODc1NDAxLDE0My43MTgwOTcgTDMxLjM2MzE0OCwxNTIuOTMyNDM2IEMzMS44NzUwNTU3LDE1NC4yMTIyMDUgMzEuMTA3MTk0MSwxNTUuNzQ3OTI5IDI5LjY5OTQ0NzksMTU2LjEzMTg1OSBDMjguNjc1NjMyNCwxNTYuNTE1NzkgMjcuNTIzODQsMTU2LjEzMTg1OSAyNi44ODM5NTUzLDE1NS4zNjM5OTggTDEyLjgwNjQ5MjYsMTQxLjQxNDUxMiBMNTguNzUwMjExOCw5NS40NzA3OTI3IEw3NC42MTkzNTE2LDk1LjcyNjc0NjYgTDg1LjM2OTQxNDEsMTA2LjQ3NjgwOSBDODIuODA5ODc1NCwxMDguNjUyNDE3IDY3LjMyNDY2NjQsMTIzLjYyNTcxOCAyOS44Mjc0MjQ4LDE0Mi40MzgzMjcgTDI5LjgyNzQyNDgsMTQyLjQzODMyNyBaIj4mI3hhOyYjeGE7PC9wYXRoPiYjeGE7ICAgICAgICAgICAgPHBhdGggZmlsbD0iI0ZGNkMzNyIgZD0iTTI4LjgwMzYwOTMsMTU3LjQxMTYyOSBDMjcuNzc5NzkzOCwxNTcuNDExNjI5IDI2Ljc1NTk3ODQsMTU3LjAyNzY5OCAyNi4xMTYwOTM3LDE1Ni4yNTk4MzYgTDEyLjE2NjYwNzksMTQyLjMxMDM1IEMxMS45MTA2NTQsMTQyLjA1NDM5NyAxMS43ODI2NzcxLDE0MS43OTg0NDMgMTEuNzgyNjc3MSwxNDEuNDE0NTEyIEMxMS43ODI2NzcxLDE0MS4wMzA1ODEgMTEuOTEwNjU0LDE0MC43NzQ2MjcgMTIuMTY2NjA3OSwxNDAuNTE4NjczIEw1OC4xMTAzMjcyLDk0LjU3NDk1NDEgQzU4LjM2NjI4MSw5NC4zMTkwMDAzIDU4Ljc1MDIxMTgsOTQuMTkxMDIzMyA1OS4wMDYxNjU3LDk0LjE5MTAyMzMgTDc0Ljg3NTMwNTUsOTQuNDQ2OTc3MiBDNzUuMjU5MjM2Myw5NC40NDY5NzcyIDc1LjUxNTE5MDIsOTQuNTc0OTU0MSA3NS43NzExNDQxLDk0LjgzMDkwOCBMODYuNTIxMjA2NSwxMDUuNTgwOTcgQzg2Ljc3NzE2MDQsMTA1LjgzNjkyNCA4Ni45MDUxMzczLDEwNi4yMjA4NTUgODYuOTA1MTM3MywxMDYuNjA0Nzg2IEM4Ni45MDUxMzczLDEwNi45ODg3MTcgODYuNzc3MTYwNCwxMDcuMjQ0NjcxIDg2LjM5MzIyOTYsMTA3LjUwMDYyNCBMODUuNDk3MzkxLDEwOC4yNjg0ODYgQzcxLjkzMTgzNiwxMjAuMTcwMzQxIDUzLjUwMzE1NzYsMTMyLjA3MjE5NiAzMC41OTUyODY0LDE0My40NjIxNDMgTDMyLjc3MDg5NDMsMTUyLjU0ODUwNSBDMzMuMTU0ODI1MSwxNTQuMjEyMjA1IDMyLjM4Njk2MzUsMTU2LjAwMzg4MiAzMC44NTEyNDAzLDE1Ni44OTk3MjEgQzMwLjA4MzM3ODcsMTU3LjI4MzY1MiAyOS40NDM0OTQsMTU3LjQxMTYyOSAyOC44MDM2MDkzLDE1Ny40MTE2MjkgWiBNMTQuNzI2MTQ2NiwxNDEuNDE0NTEyIEwyNy45MDc3NzA4LDE1NC40NjgxNTkgQzI4LjI5MTcwMTYsMTU1LjEwODA0NCAyOS4wNTk1NjMyLDE1NS4zNjM5OTggMjkuNjk5NDQ3OSwxNTQuOTgwMDY3IEMzMC4zMzkzMzI1LDE1NC41OTYxMzYgMzAuNTk1Mjg2NCwxNTMuODI4Mjc1IDMwLjIxMTM1NTYsMTUzLjE4ODM5IEwyOC4wMzU3NDc3LDE0My45NzQwNTEgQzI3Ljc3OTc5MzgsMTQyLjgyMjI1OCAyOC4yOTE3MDE2LDE0MS43OTg0NDMgMjkuMzE1NTE3MSwxNDEuMjg2NTM1IEM1MS45Njc0MzQzLDEyOS44OTY1ODggNzAuMjY4MTM1OSwxMTguMTIyNzEgODMuNzA1NzE0LDEwNi40NzY4MDkgTDc0LjIzNTQyMDgsOTcuMDA2NTE1OSBMNTkuNTE4MDczNCw5Ni43NTA1NjIgTDE0LjcyNjE0NjYsMTQxLjQxNDUxMiBaIj4mI3hhOyYjeGE7PC9wYXRoPiYjeGE7ICAgICAgICAgICAgPHBhdGggZmlsbD0iI0ZGRkZGRiIgZD0iTTEuOTI4NDUzMiwxNTIuNDIwNTI4IEwxMi45MzQ0Njk1LDE0MS40MTQ1MTIgTDI5LjMxNTUxNzEsMTU3Ljc5NTU1OSBMMy4yMDgyMjI1NCwxNTYuMDAzODgyIEMyLjA1NjQzMDEzLDE1NS44NzU5MDUgMS4yODg1Njg1MywxNTQuODUyMDkgMS40MTY1NDU0NiwxNTMuNzAwMjk4IEMxLjQxNjU0NTQ2LDE1My4xODgzOSAxLjU0NDUyMjQsMTUyLjY3NjQ4MiAxLjkyODQ1MzIsMTUyLjQyMDUyOCBMMS45Mjg0NTMyLDE1Mi40MjA1MjggWiI+JiN4YTsmI3hhOzwvcGF0aD4mI3hhOyAgICAgICAgICAgIDxwYXRoIGZpbGw9IiNGRjZDMzciIGQ9Ik0yOS4zMTU1MTcxLDE1OC45NDczNTIgTDMuMDgwMjQ1NiwxNTcuMTU1Njc1IEMxLjE2MDU5MTU5LDE1Ny4wMjc2OTggLTAuMTE5MTc3NzQ1LDE1NS4zNjM5OTggMC4wMDg3OTkxODg0NSwxNTMuNDQ0MzQ0IEMwLjEzNjc3NjEyMiwxNTIuNjc2NDgyIDAuMzkyNzI5OTksMTUxLjkwODYyMSAxLjAzMjYxNDY2LDE1MS4zOTY3MTMgTDEyLjAzODYzMSwxNDAuMzkwNjk2IEMxMi41NTA1Mzg3LDEzOS44Nzg3ODkgMTMuMzE4NDAwMywxMzkuODc4Nzg5IDEzLjgzMDMwOCwxNDAuMzkwNjk2IEwzMC4yMTEzNTU2LDE1Ni43NzE3NDQgQzMwLjU5NTI4NjQsMTU3LjE1NTY3NSAzMC43MjMyNjMzLDE1Ny42Njc1ODMgMzAuNDY3MzA5NSwxNTguMTc5NDkgQzMwLjIxMTM1NTYsMTU4LjY5MTM5OCAyOS44Mjc0MjQ4LDE1OC45NDczNTIgMjkuMzE1NTE3MSwxNTguOTQ3MzUyIEwyOS4zMTU1MTcxLDE1OC45NDczNTIgWiBNMTIuOTM0NDY5NSwxNDMuMjA2MTg5IEwyLjgyNDI5MTczLDE1My4zMTYzNjcgQzIuNDQwMzYwOTMsMTUzLjU3MjMyMSAyLjQ0MDM2MDkzLDE1NC4yMTIyMDUgMi44MjQyOTE3MywxNTQuNDY4MTU5IEMyLjk1MjI2ODY3LDE1NC41OTYxMzYgMy4wODAyNDU2LDE1NC43MjQxMTMgMy4zMzYxOTk0NywxNTQuNzI0MTEzIEwyNS45ODgxMTY4LDE1Ni4yNTk4MzYgTDEyLjkzNDQ2OTUsMTQzLjIwNjE4OSBaIj4mI3hhOyYjeGE7PC9wYXRoPiYjeGE7ICAgICAgICAgICAgPHBhdGggZmlsbD0iI0ZGNkMzNyIgZD0iTTU0LjI3MTAxOTIsMTAxLjM1NzczMiBDNTMuNTAzMTU3NiwxMDEuMzU3NzMyIDUyLjk5MTI0OTgsMTAwLjcxNzg0NyA1Mi45OTEyNDk4LDEwMC4wNzc5NjIgQzUyLjk5MTI0OTgsOTkuNjk0MDMxNSA1My4xMTkyMjY4LDk5LjQzODA3NzYgNTMuMzc1MTgwNiw5OS4xODIxMjM4IEw2NS43ODg5NDMyLDg2Ljc2ODM2MTIgQzY2LjMwMDg1MDksODYuMjU2NDUzNCA2Ny4wNjg3MTI1LDg2LjI1NjQ1MzQgNjcuNTgwNjIwMyw4Ni43NjgzNjEyIEw3NS42NDMxNjcxLDk0LjgzMDkwOCBDNzYuMDI3MDk3OSw5NS4yMTQ4Mzg4IDc2LjE1NTA3NDksOTUuNTk4NzY5NiA3Ni4wMjcwOTc5LDk2LjExMDY3NzQgQzc1Ljg5OTEyMSw5Ni40OTQ2MDgyIDc1LjUxNTE5MDIsOTYuODc4NTM5IDc1LjAwMzI4MjUsOTcuMDA2NTE1OSBMNTQuNTI2OTczLDEwMS4zNTc3MzIgQzU0LjM5ODk5NjEsMTAxLjM1NzczMiA1NC4yNzEwMTkyLDEwMS4zNTc3MzIgNTQuMjcxMDE5MiwxMDEuMzU3NzMyIEw1NC4yNzEwMTkyLDEwMS4zNTc3MzIgWiBNNjYuNjg0NzgxNyw4OS40NTU4NzY4IEw1OC4yMzgzMDQxLDk3LjkwMjM1NDQgTDcyLjA1OTgxMyw5NC45NTg4ODQ5IEw2Ni42ODQ3ODE3LDg5LjQ1NTg3NjggWiI+JiN4YTsmI3hhOzwvcGF0aD4mI3hhOyAgICAgICAgICAgIDxwYXRoIGZpbGw9IiNGRkZGRkYiIGQ9Ik03NC42MTkzNTE2LDk1LjcyNjc0NjYgTDYwLjU0MTg4ODksOTguNzk4MTkzIEM1OS41MTgwNzM0LDk5LjA1NDE0NjggNTguNDk0MjU4LDk4LjQxNDI2MjIgNTguMjM4MzA0MSw5Ny4zOTA0NDY3IEM1OC4xMTAzMjcyLDk2Ljc1MDU2MiA1OC4yMzgzMDQxLDk2LjExMDY3NzQgNTguNzUwMjExOCw5NS41OTg3Njk2IEw2Ni41NTY4MDQ4LDg3Ljc5MjE3NjcgTDc0LjYxOTM1MTYsOTUuNzI2NzQ2NiBaIj4mI3hhOyYjeGE7PC9wYXRoPiYjeGE7ICAgICAgICAgICAgPHBhdGggZmlsbD0iI0ZGNkMzNyIgZD0iTTYwLjI4NTkzNTEsMTAwLjA3Nzk2MiBDNTguNDk0MjU4LDEwMC4wNzc5NjIgNTcuMDg2NTExNyw5OC42NzAyMTYgNTcuMDg2NTExNyw5Ni44Nzg1MzkgQzU3LjA4NjUxMTcsOTUuOTgyNzAwNCA1Ny40NzA0NDI1LDk1LjIxNDgzODggNTcuOTgyMzUwMiw5NC41NzQ5NTQxIEw2NS43ODg5NDMyLDg2Ljc2ODM2MTIgQzY2LjMwMDg1MDksODYuMjU2NDUzNCA2Ny4wNjg3MTI1LDg2LjI1NjQ1MzQgNjcuNTgwNjIwMyw4Ni43NjgzNjEyIEw3NS42NDMxNjcxLDk0LjgzMDkwOCBDNzYuMDI3MDk3OSw5NS4yMTQ4Mzg4IDc2LjE1NTA3NDksOTUuNTk4NzY5NiA3Ni4wMjcwOTc5LDk2LjExMDY3NzQgQzc1Ljg5OTEyMSw5Ni40OTQ2MDgyIDc1LjUxNTE5MDIsOTYuODc4NTM5IDc1LjAwMzI4MjUsOTcuMDA2NTE1OSBMNjAuOTI1ODE5NywxMDAuMDc3OTYyIEM2MC42Njk4NjU5LDEwMC4wNzc5NjIgNjAuNDEzOTEyLDEwMC4wNzc5NjIgNjAuMjg1OTM1MSwxMDAuMDc3OTYyIEw2MC4yODU5MzUxLDEwMC4wNzc5NjIgWiBNNjYuNjg0NzgxNyw4OS40NTU4NzY4IEw1OS43NzQwMjczLDk2LjM2NjYzMTIgQzU5LjUxODA3MzQsOTYuNjIyNTg1MSA1OS41MTgwNzM0LDk2Ljg3ODUzOSA1OS42NDYwNTA0LDk3LjEzNDQ5MjggQzU5Ljc3NDAyNzMsOTcuMzkwNDQ2NyA2MC4wMjk5ODEyLDk3LjUxODQyMzYgNjAuNDEzOTEyLDk3LjUxODQyMzYgTDcyLjE4Nzc4OTksOTQuOTU4ODg0OSBMNjYuNjg0NzgxNyw4OS40NTU4NzY4IFoiPiYjeGE7JiN4YTs8L3BhdGg+JiN4YTsgICAgICAgICAgICA8cGF0aCBmaWxsPSIjRkY2QzM3IiBkPSJNMTUzLjA2OTIxMiwxOS43MDg0NDc4IEMxNTIuODEzMjU4LDE4Ljk0MDU4NjIgMTUxLjkxNzQyLDE4LjU1NjY1NTQgMTUxLjE0OTU1OCwxOC44MTI2MDkzIEMxNTAuMzgxNjk3LDE5LjA2ODU2MzIgMTQ5Ljk5Nzc2NiwxOS45NjQ0MDE3IDE1MC4yNTM3MiwyMC43MzIyNjMzIEMxNTAuMjUzNzIsMjAuODYwMjQwMiAxNTAuMzgxNjk3LDIwLjk4ODIxNzIgMTUwLjM4MTY5NywyMS4xMTYxOTQxIEMxNTEuMTQ5NTU4LDIyLjY1MTkxNzMgMTUwLjg5MzYwNCwyNC41NzE1NzEzIDE0OS44Njk3ODksMjUuOTc5MzE3NiBDMTQ5LjM1Nzg4MSwyNi42MTkyMDIzIDE0OS40ODU4NTgsMjcuNTE1MDQwOCAxNDkuOTk3NzY2LDI4LjAyNjk0ODUgQzE1MC42Mzc2NSwyOC41Mzg4NTYzIDE1MS41MzM0ODksMjguNDEwODc5MyAxNTIuMDQ1Mzk3LDI3Ljc3MDk5NDcgQzE1My45NjUwNTEsMjUuMzM5NDMyOSAxNTQuMzQ4OTgxLDIyLjI2Nzk4NjUgMTUzLjA2OTIxMiwxOS43MDg0NDc4IEwxNTMuMDY5MjEyLDE5LjcwODQ0NzggWiI+JiN4YTsmI3hhOzwvcGF0aD4mI3hhOyAgICAgICAgPC9nPiYjeGE7ICAgIDwvZz4mI3hhOzwvc3ZnPg==;" vertex="1" parent="1">
          <mxGeometry x="250" y="540" width="40" height="40" as="geometry" />
        </mxCell>
        <mxCell id="Bzk-ISGM82NvutfXo54f-4" value="using" style="endArrow=classic;html=1;rounded=0;" edge="1" parent="1" source="Bzk-ISGM82NvutfXo54f-2">
          <mxGeometry width="50" height="50" relative="1" as="geometry">
            <mxPoint x="260" y="610" as="sourcePoint" />
            <mxPoint x="250" y="560" as="targetPoint" />
          </mxGeometry>
        </mxCell>
        <mxCell id="Bzk-ISGM82NvutfXo54f-5" value="Intercepting&#xa;proxy" style="shape=image;verticalLabelPosition=bottom;labelBackgroundColor=default;verticalAlign=top;aspect=fixed;imageAspect=0;image=https://cdn.icon-icons.com/icons2/3053/PNG/512/burp_suite_alt_macos_bigsur_icon_190318.png;" vertex="1" parent="1">
          <mxGeometry x="350" y="540" width="40" height="40" as="geometry" />
        </mxCell>
        <mxCell id="Bzk-ISGM82NvutfXo54f-6" value="" style="endArrow=classic;startArrow=classic;html=1;rounded=0;exitX=0;exitY=0.5;exitDx=0;exitDy=0;entryX=1;entryY=0.5;entryDx=0;entryDy=0;" edge="1" parent="1" source="Bzk-ISGM82NvutfXo54f-5" target="Bzk-ISGM82NvutfXo54f-3">
          <mxGeometry width="50" height="50" relative="1" as="geometry">
            <mxPoint x="220" y="620" as="sourcePoint" />
            <mxPoint x="270" y="570" as="targetPoint" />
          </mxGeometry>
        </mxCell>
        <mxCell id="Bzk-ISGM82NvutfXo54f-7" value="gRPC backend" style="rounded=1;whiteSpace=wrap;html=1;fillColor=#345F60;fontColor=#FFFFFF;" vertex="1" parent="1">
          <mxGeometry x="450" y="530" width="120" height="60" as="geometry" />
        </mxCell>
        <mxCell id="Bzk-ISGM82NvutfXo54f-8" value="" style="endArrow=classic;startArrow=classic;html=1;rounded=0;exitX=0;exitY=0.5;exitDx=0;exitDy=0;entryX=1;entryY=0.5;entryDx=0;entryDy=0;" edge="1" parent="1" source="Bzk-ISGM82NvutfXo54f-7" target="Bzk-ISGM82NvutfXo54f-5">
          <mxGeometry width="50" height="50" relative="1" as="geometry">
            <mxPoint x="220" y="620" as="sourcePoint" />
            <mxPoint x="270" y="570" as="targetPoint" />
          </mxGeometry>
        </mxCell>
        <mxCell id="Bzk-ISGM82NvutfXo54f-9" value="" style="whiteSpace=wrap;html=1;shape=mxgraph.basic.document;verticalAlign=bottom;horizontal=1;" vertex="1" parent="1">
          <mxGeometry x="140" y="480" width="30" height="40" as="geometry" />
        </mxCell>
        <mxCell id="Bzk-ISGM82NvutfXo54f-10" value="" style="shape=image;verticalLabelPosition=bottom;labelBackgroundColor=default;verticalAlign=top;aspect=fixed;imageAspect=0;image=data:image/png,iVBORw0KGgoAAAANSUhEUgAAAMgAAABaCAYAAAD99hnWAAAMPGlDQ1BJQ0MgUHJvZmlsZQAASImVVwdYU8kanVuSkEBoAQSkhN4EESkBpITQQu8INkISIJQQA0HFjiwquBZULGBDV0UUrIDYETuLYu8LKgrKuliwK29SQNd95XuTb+49OfPP+cudWwYAtZMckSgbVQcgR5gvjgnyo49PSqaTegACfwCYAAMON0/EjIoKg//A0Pnv7d1NmS24Zi/V+uf4f20aPH4eFwAkCuJUXh43B+KDAOBVXJE4HwCilDebli+SYtiBlhgGCPEiKU6X4yopTpXjvTKbuBgWxK0AKKlwOOJ0AFSvQJ5ewE2HGqr9EDsKeQIhAGp0iL1zcnJ5EKdAbA1tRBBL9RmpP+ik/00zdViTw0kfxvJcZE3JX5AnyubM+D/L8b9bTrZkyIcl7CoZ4uAYac6wbrezckOlWAXiPmFqRCTEmhB/EPBk9hCjlAxJcLzcHjXg5rFgzYAOxI48jn8oxAYQBwqzI8IUfGqaIJANMVwh6HRBPjsOYl2IF/HzAmIVNpvFuTEKX2hDmpjFVPDnOWKZX6mvh5KseKZC/3UGn63Qx1QLM+ISIaZAbF4gSIiAWBVih7ys2FCFzbjCDFbEkI1YEiON3xziGL4wyE+ujxWkiQNjFPalOXlD+WKbMwTsCAXen58RFyyvD9bK5cjih7lgV/hCZvyQDj9vfNhQLjy+f4A8d6yHL4yPVeh8EOX7xcjn4hRRdpTCHjflZwdJeVOInfMKYhVz8YR8uCDl+niaKD8qTh4nXpjJCYmSx4MvB2GABfwBHUhgTwW5IBMI2vsa++A/+Ugg4AAxSAd8YK9ghmYkykaE8BgLCsGfEPFB3vA8P9koHxRA/uswKz/agzTZaIFsRhZ4CnEOCAXZ8L9ENks47C0BPIGM4B/eObBzYbzZsEvH/z0/xH5nmJAJUzCSIY90tSFLYgDRnxhMDCTa4Pq4N+6Jh8GjL+xOOAN3H8rjuz3hKaGD8Ihwg9BJuDNFUCT+Kcpw0An1AxW1SP2xFrgl1HTB/XAvqA6VcR1cH9jjztAPE/eBnl0gy1LELa0K/Sftv2Xww9VQ2JEdySh5BNmXbP3zTFVbVZdhFWmtf6yPPNbU4Xqzhkd+9s/6ofo8eA792RJbhB3AzmGnsAvYUawR0LETWBPWhh2T4uHV9US2uoa8xcjiyYI6gn/4G7qy0krmOdY69jp+kY/l86dLn9GAlSuaIRakZ+TTmfCNwKezhVyHUXQnRydnAKTvF/nj60207L2B6LR95xb8AYDXicHBwSPfuZATAOxzg7f/4e+cNQO+OpQBOH+YKxEXyDlceiDAp4QavNP0gBEwA9YwHyfgCjyBLwgAISASxIEkMBlGnwHXuRhMA7PAfFACysBysBqsB5vAVrAT7AH7QSM4Ck6Bs+ASuAJugHtw9XSDF6AfvAOfEQQhIVSEhughxogFYoc4IQzEGwlAwpAYJAlJQdIRISJBZiELkDKkHFmPbEFqkH3IYeQUcgHpQO4gXUgv8hr5hGKoCqqFGqKW6GiUgTLRUDQOnYSmo1PRQrQYXYquRavR3WgDegq9hN5AO9EX6AAGMGVMBzPB7DEGxsIisWQsDRNjc7BSrAKrxuqwZnidr2GdWB/2ESfiNJyO28MVHIzH41x8Kj4HX4Kvx3fiDXgrfg3vwvvxbwQqwYBgR/AgsAnjCemEaYQSQgVhO+EQ4Qy8l7oJ74hEog7RiugG78UkYiZxJnEJcQOxnniS2EF8TBwgkUh6JDuSFymSxCHlk0pI60i7SSdIV0ndpA9KykrGSk5KgUrJSkKlIqUKpV1Kx5WuKj1T+kxWJ1uQPciRZB55BnkZeRu5mXyZ3E3+TNGgWFG8KHGUTMp8ylpKHeUM5T7ljbKysqmyu3K0skB5nvJa5b3K55W7lD+qaKrYqrBUJqpIVJaq7FA5qXJH5Q2VSrWk+lKTqfnUpdQa6mnqQ+oHVZqqgypblac6V7VStUH1qupLNbKahRpTbbJaoVqF2gG1y2p96mR1S3WWOkd9jnql+mH1W+oDGjSNMRqRGjkaSzR2aVzQ6NEkaVpqBmjyNIs1t2qe1nxMw2hmNBaNS1tA20Y7Q+vWImpZabG1MrXKtPZotWv1a2tqO2snaE/XrtQ+pt2pg+lY6rB1snWW6ezXuanzaYThCOYI/ojFI+pGXB3xXnekrq8uX7dUt173hu4nPbpegF6W3gq9Rr0H+ri+rX60/jT9jfpn9PtGao30HMkdWTpy/8i7BqiBrUGMwUyDrQZtBgOGRoZBhiLDdYanDfuMdIx8jTKNVhkdN+o1phl7GwuMVxmfMH5O16Yz6dn0tfRWer+JgUmwicRki0m7yWdTK9N40yLTetMHZhQzhlma2SqzFrN+c2PzcPNZ5rXmdy3IFgyLDIs1Fucs3ltaWSZaLrRstOyx0rViWxVa1Vrdt6Za+1hPta62vm5DtGHYZNlssLlii9q62GbYVtpetkPtXO0EdhvsOkYRRrmPEo6qHnXLXsWeaV9gX2vf5aDjEOZQ5NDo8HK0+ejk0StGnxv9zdHFMdtxm+O9MZpjQsYUjWke89rJ1onrVOl0fSx1bODYuWObxr5ytnPmO290vu1Ccwl3WejS4vLV1c1V7Frn2utm7pbiVuV2i6HFiGIsYZx3J7j7uc91P+r+0cPVI99jv8dfnvaeWZ67PHvGWY3jj9s27rGXqRfHa4tXpzfdO8V7s3enj4kPx6fa55GvmS/Pd7vvM6YNM5O5m/nSz9FP7HfI7z3LgzWbddIf8w/yL/VvD9AMiA9YH/Aw0DQwPbA2sD/IJWhm0MlgQnBo8IrgW2xDNpddw+4PcQuZHdIaqhIaG7o+9FGYbZg4rDkcDQ8JXxl+P8IiQhjRGAki2ZErIx9EWUVNjToSTYyOiq6MfhozJmZWzLlYWuyU2F2x7+L84pbF3Yu3jpfEtySoJUxMqEl4n+ifWJ7YOX70+NnjLyXpJwmSmpJJyQnJ25MHJgRMWD2he6LLxJKJNydZTZo+6cJk/cnZk49NUZvCmXIghZCSmLIr5QsnklPNGUhlp1al9nNZ3DXcFzxf3ipeL9+LX85/luaVVp7Wk+6VvjK9N8MnoyKjT8ASrBe8ygzO3JT5Pisya0fWYHZidn2OUk5KzmGhpjBL2JprlDs9t0NkJyoRdU71mLp6ar84VLw9D8mblNeUrwU/5Nsk1pJfJF0F3gWVBR+mJUw7MF1junB62wzbGYtnPCsMLPxtJj6TO7Nllsms+bO6ZjNnb5mDzEmd0zLXbG7x3O55QfN2zqfMz5r/e5FjUXnR2wWJC5qLDYvnFT/+JeiX2hLVEnHJrYWeCzctwhcJFrUvHrt43eJvpbzSi2WOZRVlX5Zwl1z8dcyva38dXJq2tH2Z67KNy4nLhctvrvBZsbNco7yw/PHK8JUNq+irSle9XT1l9YUK54pNayhrJGs614atbVpnvm75ui/rM9bfqPSrrK8yqFpc9X4Db8PVjb4b6zYZbirb9GmzYPPtLUFbGqotqyu2ErcWbH26LWHbud8Yv9Vs199etv3rDuGOzp0xO1tr3GpqdhnsWlaL1kpqe3dP3H1lj/+epjr7ui31OvVle8Feyd7n+1L23dwfur/lAONA3UGLg1WHaIdKG5CGGQ39jRmNnU1JTR2HQw63NHs2HzricGTHUZOjlce0jy07TjlefHzwROGJgZOik32n0k89bpnScu/0+NPXW6Nb28+Enjl/NvDs6XPMcyfOe50/esHjwuGLjIuNl1wvNbS5tB363eX3Q+2u7Q2X3S43XXG/0twxruP4VZ+rp675Xzt7nX390o2IGx0342/evjXxVudt3u2eO9l3Xt0tuPv53rz7hPulD9QfVDw0eFj9h80f9Z2unce6/LvaHsU+uveY+/jFk7wnX7qLn1KfVjwzflbT49RztDew98rzCc+7X4hefO4r+VPjz6qX1i8P/uX7V1v/+P7uV+JXg6+XvNF7s+Ot89uWgaiBh+9y3n1+X/pB78POj4yP5z4lfnr2edoX0pe1X22+Nn8L/XZ/MGdwUMQRc2SfAhjsaFoaAK93AEBNAoAG92eUCfL9n6zJ97dyBP4Tlu8RZc0VgDr4/R7dB79ubgGwdxvcfkF9tYkARFEBiHMH6Nixw31orybbV0obEe4DNkd9Tc1JBf+myfecP8T98xlIVZ3Bz+d/AWTTfEtdRHYQAAAAOGVYSWZNTQAqAAAACAABh2kABAAAAAEAAAAaAAAAAAACoAIABAAAAAEAAADIoAMABAAAAAEAAABaAAAAABNVa98AADXRSURBVHgB7X0JYFTVvfc5d5mZbOxURVSWACp1aUFEcAmoZcc1VkBrq61W+/r1q23ta7WvY2tbu3zV1upTnl/1KYuaurGKVRk31Ep4LnUhhE0BRUSBkGRm7vZ+v3PvDZMQkoHMhGjnwGTu3OWc//mf/37+51whCqWAgQIGChgoYKCAgc7FgOfJzm2w0FoBA58RDFQ+9JCuQCWTFBjlMzJqBTA7BQMVy5cbbGjsCy+UNTVYYJImVBQO/oUxMGLlSpPdr1i+pP/oZ57afPzTf4/7v8E0BSYhKgrlXxUDIXNMXfH04eOWP/PeKc8lvGOff9br+/dl/65wQrOrwCT/quTxue23lk3ProTmqB450jr/uecOc219hTT0Ixzb3u2k041WNPobbdmS68VFFzmiqkorMEk2GC3c81nBgO9stwFtHD7H/xs71p6xcmWftJV+0dP1gWnLqk8LL9LoenKXnbacaGyCVnmR45533rNCSk0kEl4bVebtUtzztL7Dh2tvV1UdlPbz1rFCxQcNA22Gaskc8XHj7BnLl/exDH2FY+hDGlKp+kbXNes16e0AGW52bJF2XMeLRou9ZMN/iIlTfymWLIkOv+ce762qqnRn9azS8/QqKR22l3ncWe0X2vl8YmCfDBIyx9deeap3Oh19yTGNIUkwR9pzzEZN9+rq6rRdT6/QHcuS4BNXmVYRUzNq3l+tb935tvvFgVfV3nPbNqCNbeRVotM/ogk4/bnnxnrSPXLhaRXzr1x5lzl75FXW53PYCr3qLAy0yiAhc1yxYkWvlOetcA1jWCqd2p127Uha10VdXb3Y9sBC03v3fSlLYmAP8IehC+3Tesv70lBz24hhd++4+upviXjcwIdSPW8MEjJHxfLlXyzSxHNFkVhPw7ZnPnTaaWCSlWCSkQUm6Sxq6tx2QLtxKeJo9K23mtPx8OEe6C6kufD7gKBrXjGqCJnjcsxzeJp8xTHNY1Kp9G7LdSK2pnn19fVy0/wFpr3+Ayl7YirEcQT8EiGT8EqKo97mC85uTPbuUazV19/oXvDVuGB0q7LShW/SIUBb613IHCc988TwImE8V6zJ7jHNaIwaZini0TPnjBlzoEyyF15aaz+Lcznv8z7azAW8nQXrPrrQ7mkJOtJGrOupVQ/61EVASJnT7TwlKyoq4GdXiEQFrJx43G3n/r0uN0NsyBzXLF9emo7GXvRM4/hkKgm1IEwbPkeyoUFueHChmazZJPVepcJL20JAcwgyR1HU++CiCXZDz26uTELvlJXFRN3uX4jzL/x5PpgkZI5jn3hieHFR9NlisGuJptVHhdQMOOsxwywyXHfGvWPHPnDwNAkyDSov0iq2DVd4TvR9y8PAcpC6IjEqAqzYtg2wgqC6CqyVlTphSiQSILaMgvMDU0Yf3dJ6w/Uscz1dTWALzUtK19nhWu7H656q2pnxBKR/XKtICC2RyN6qaWKQkDl++PrrJXWNjS8I0zwRzAHN4UYcaAgwh1j7wAKz/t33pNG7rCVziK1fnWDt7tUTzJGEqvDwX2iirMwUdbvi4rzKG3PKJJywhOkUra4uP/y1N16Jvv5OL8000romjf7jxqZLe/V0DMvWoqZRpHvi4rtPOeXB/WASOWLElT6ym2E3yx8jhKju189pS1pVVMSNA5VorUBx4PAS1k/blsaQwEaib18ydjYSuxXwDuyUajeRaDLPh1dUllqlkZMdzztDSjES9DUUNR+CT6nUNHyFpOzB4ncd/PoUp96XnnzD89wX4AIk1i6YUxtCgzE2q6tnk+naFFaq1pA5QETFsN9flJHIickkmcOJ2rruphqTsuaBx826tzdKs083MAfMel0TcneSmkNsnTXFquvd3dOSKb81+CQoJDJPlJbqsm73f7gXVP6Sna4bOlSW1dQAqAres58lITagjg3xeDL28MOD9JKiFw7V9cMiL65MNt79ZMw7vEwUDzncG3rp+amyHt0d3bJ0mFsx3XVn/eeYMfPaZBJIFxJ1+aRZxwpNLAXoRF6I9f2EU/BZC0/vEp78yPO89VLKNzQpq2sWzXkD19SgKCKoqDgg1U9pmCN4SYSMNu72hNwGS3iDFPKfCE5WF5WlX2+KREJi4x6Rb0ZROMnQFoMnzRivadrXIHEnSt04RNM4Hw2fl34vvimLUTJNJ44Z0A2m0UCj+KgbrDTveQXjMTctvXnvLZ73Kc+3bI/nMouMwxyJS+l+f8WKIjDDi9AcX0qnUrstz4u4uvQaG1Py3fmPmTveWi8jfbr7mkMDDLYj3N7dvK3nf8Wq79XDE+mUP+wu8O26SGIUERAINYkrykp1kUrdKCZMiWc2fsDHb745WGz94DlTk/36G+au3tGI4Va/YdYted6w65Oy6PA+3hcvuzBVAiYxoUkiplmkO86lfxo9ek4chIVPJkJ9MEgAkJLlky7+kmZGVoGoDxg89SBQBELjUPkfnHRtCBbPW4M/C8CE99QunP8W71UaJREnU2Vf9oKXXUJbB1JagdUDh4AINwINSz1d/nXdwrmvsupA8uYj8KH8hdCUKp8y6xLg6QeabpxIQg/gAXFxZED/gCUcIRyHhzxQ13A5RAYQw8vSQF2KaVwrvQOkeXuRZfzmjSfvrw+YhIKiqR4cq6IqoVllpxqXyUhsbLKxcTfujHC0ELkSb1ctNrdXr5axQ3oIlz4HnwCDyIaUaDzjy06y3yGe1ghNQihJVORqBz654xoBiGQST5QUa0XvrJ0dW7X2dadXUZFAIwAy6oPR+l/UqYG9/HsoEDzIt8aU1TD+pCvcsuIjNMtuLJLSRBxNRAzDa3j5NcOta5RWfVKUgEmOm3VuuluvnrYOAxXMFDOk9o0/jhp1b6tMEhDc0KmXnOB63mvoCBHGonDEnqku4nf4HVxkr9U9rf0Oz/EbRZca/xvCsSG0Xe9BVzeuW7fwvvfak2T+4xl/s4A34+6mQ8LOH5kwN13EgX9d3QJADSlhXpM4IfSWeJp3nWJqX3vxJnVj5vMHcpzZ98HTZoyXrvijZkZPoJZwHZvmEngCtOC3Fgo3DCc0BDVFKIQ4EihKu1BQKytADQ21H6NErIsBI1M3IwKZIB9iUK9Zu2juo3xOBFpZHQd/1NPXvvrqvGiP7jPqtn+yA9WWODDiXNMQ7yxYZq55cLnW8/ijhN2QRL3qdh8tNLE+2im06o+FOKLIP0dtBqAVuQTAqnZgOMpGx5YnDzZFLIJ7DxCvfI4D9t6HwnvzI8vrEzU92xVOnS0cUwpzZH/Vtl4cE5+8tlEcfclZ9rFTzrI020lHTbO7dJwN3UtLh8WHD0dUAajJjKwFBDdk8swTEb37H5/bFfR+p8O+B4hr9wvSAtBClWJAfIyoQcIxf3P0DGgqCWmWxuhfuXbx3P8OBojIaR9BrcMbDBBq2B94ASka9ImndVh1zTA1ECvR8qO1i+f9AS2wsL32YVW3tv4n1EjUopuKa/5TM4xvKgQ4VLdgCow4PorawQyGNHz3EHgjHrf4H+8T9LcekFAo98A3CEEMAH5pj/mamyavb/b7MHvClrpmwmyD4E/fXrtk3r/hOmaZfUtCHeOPak2X8mf1n3wyGsANxMRfPQS16dqOd/iYkfaOjVsi9Rs/FGYPRK0swMnqQw1y5gg39bVDXC3paxAAJiFp2D/ehY7hUGqY49Y8EYuZRe+u+3P0f2rfFj2KY66t7lMYcKknhISNhpJJuOExvlGh4xmaZWz6uHHHjInftq/qPV5DhK1EyEipaXhRIGL3ky+aLkyshs3bxYBzT3EHjD/V9hzXAmN3dx3nPdO0K8gc8cCsVO1l+8fzdqM7jupZ28+w7zAvZUzXDaAWs6rQqiQuiDb8ocgTzIr2MDAWcBkxzMi95VNnDqyFams5QG031cbV7OGFxJJFABWw6ohp4J9NRiCsanhUBjfMQ0VgRjT2+yFTZg5Zs3jeVW20ntWlEVfCUZ492xo0+atDN8maRXokOsROp8gMRDPbJROAkA2lLcAUW4WVesLxxDLgbaW7O/L+hsS9Sd7frIDIy3drA7x06nRXygtR10Qwi4nneRv7RUYyoWkcDIKnR2PfKZ88cwiYZKLysTI0ieTipyokGl63alW/hpT1kmdqR6YtG6Fd18QEoVe/c5d85/5HjIaNWzWzR4nPJPRBLEjtw3q7W8492051L/XgY/jErajBA+PxQ2yjk3DURSp5PdJQfk0Ic1Ke+ftTkGpnHi7Ezj6GbjrLV0QaX3zdSO+sF71OOsYddv7kdCxipk3P6wZsbNZcd+ztY8duDAMSe8HQukT2b1OqU45rkMX/iMq6MpOMso/i2rb0HD3marInhNNRMMyOg9wYA3PyNAxStwziU8IJ1ZAIXBCH4aST36ldPP+OrHySHMErPDPqeKmewjWOENL9Ihh7NEaXsPb1OMeFDoFcQ1gp/BD5iEWcVPLXtYvnXZ9pHu0DJa2eDjXH4Ckzx8H2WQbNYMKUIwWDYVWxYEL5Et6yVoFjb42WWI8iaLA7uB5+qfB0+EP4k4TEaVMpn3TZYE9Lfw8mw9WgGcO1la8QanTelwL+o46VeqZ20bwz/QdpUSMGxh9hdOfbK1YcDhPpBUz8DUhBkyCKZSLE6zXsqpNr5jwaSb7/kTC6k0mAM04O7moQbs9SP8Tboxs0SYo1gnxccD8kpQS3lpUZctfOOCYNbyRSBEKLotoHYX//lpXVeJuOO06vve02ahtpPrH06UNNY1zRI8uS1tyXYs7AbqLX6cc7g8gcpmFjPqQsomlbYpp+6l9OPnl92M9W222H4DzPPm7t4gf/2eqzWZw8+ryv9UZe56UA+wYMUm9IZF+S+c9yQJVtqmnuMTUL57/bribJI7zDpl9e5rqNF0Jxx8EoR0LyZsKqTEcIdQQHrQr4JM+2C2sL/DQxx+RLJiIotRQUQ41FDaU0K74dtGsojSHFD0C0c8MqyJA8TvjRPzIsPy0LZtjjsiIhtGA+Rwm0oVNmDoLN+xfNiExC3eGz1OgsjWCSIieVWghNMh2/yRtKygumY5B47hw5cvM3X355tLDtlzRDHyhstx4CxDTLSr0Bs85Jr5vzmGFt/ljTuhUrDeJ1LxYaHOJDHlpmOJVfsRt7duckIYQmmQ+Jg2AOzIPc5IE5OA9SXVlp43xrHSKA2RWGADk7D61nTZh4lnbX7GeNo/qdGrvunAY46pFDRpxgIx3fhhdVira2YTTPaJc5smhZupKDJ3yJuRwIv1EJl1YfjeMs0h84wVVXN1Ry5vfdqvu24+ytg86qvAcaZa5umFMymIQOqMVwm2dZ1LLn49Oh0hzeimYStVnF8eBXIqGNAKwUQokFf63D2Xugye7fXLL6bhDUZXAJ6KMoqYtvWgbQe/J3+HsyzJJ91x9UH36FzDF02oxTMTZL/cCOCqkTv6xHkjkcK/1ArN761lsJagwPcz1XGZy3CKNcyBgPq2ztW6Wa4A4fLphMI7Zs0WHOrcPNkwdPnvEjCKnfQWNxDNETz4F5WUSNCbaoDSpUdNpskEMJe80//nFovW29BO0xgKntmCw0LYR8d++s07bMfdx0Nn8sJDQJzSzOpMvGtHBLi8SWC89KN3ZHhkra0t1usGx27fq1OL/y+pxOEgbQh0wC0aMfv+L5J7sZxvgix90ZcyB8PFka0eR2qdmnzR8z7t2wX+GjrX63I5Gl631pzZJ5r+2vtMxoSw6vrDTDeQXYvI9qpnluBpNwQNR4oAtHr39izurAaW+d+PILr4R/YNA/IPzlU2beAaK9OlOTAFgH0TgdwvQM4OW5rPASwDxw8syj4PC8LTVZHEzqkfHYT41OM5QJtMb8P7LtkKF43OHC9lkYzp8ysxIm3EP0Q+B761AEu2FRzUS7C4N2FPOE6kWdCzXJHaNGfSiN9Cl4aCNswxIgw3KRtatDk3SfOT2t9cfMKswrxFbRLTgZJUjwQJSr38NPmUWf7nJdaA5t186b88YchJYLtKhJoKneGHv6mU59/VNwxLujwwypfYLMg9OzZo4AI3n+Uun/oYmQLLFmQip/gEGiyUDi4IBYuhkVmu5OIyw0Efh9EIqnmIPOKgp8jWvgHrxBZ5mMwXMA1mWYFYBfwN9hOg2P91GkcoBxUZfiMRBlMcbKQj0kWiUcVEjZtS8hcyg8oX1oDcWk+6hz/04zGwAfCKoI+lQFV+AbRqwIzGGtQC7VUDKHcgP8WgnT3gMQMsm9o8Z9CNofg5WDG9GZEk9qlougiwSTaBdPtV3MM8htu5QW0er8QIK+6ROr/zMri3rWrp/nnn/RTyABDUiWvCQqqj6AScIdVl4af/bZSJxM4HwSczCnPnjKKe9kpTlURZ33hyYCB2hTVVUjYns3U2KCPkItIRnjgBF6OiFS9nPngbZ3S5hQDQkGsN7IWAUIWhEO/mggcMgnMUbB6uc37V1HcAb1KN8B5s1vYeufCKKkQ67MVtTlwuRBcMO9gv4G8aNMqdYmdPfZQvYXlBYH80Hz3Wun6iv71w87451lcz5oTVu1KqFCJnng1FO3pI3UybZtr1OaRJNkEumUFnufXjjRSh8/yHUO7e1Zg7ASt39fJz1qWMTdtn1j3/+/uEf5rG/2B4PQ58ge8gO4kxG4kEnKPHmerXsjHx437t0Rd3E9SNdMdX9r+HA6vYw3Pq5CvX6UiISHmDh4RYohOG6SuLz3YJUgX0lEiq0nXcf6iHMRgIWpElAfiq8HwK/qjnOEv/XBhmlDTaCyFHT9Oied4r2KOfAUtGYE64rs39cunvtXhn5DMxT35K+Q+cAktYse+FuCWQwBjC0bbJVBeFPIJAtGn7VVRKwx4Ph1gpoETMIoVmNJsXj/nLOt9yonWBvPPbNxw4xp+oazT7kVs5IDGmaOv9A2bcwgqkJk5LWQSeKY23hs3LgdT5w6fjVXFFZf1YUXSwWScf2SeRtBUjU0LVBIbZhHUujqC6LrFiCtdaILLnbCl0fiYXgVTjXMrBBWsIiv+HoYUbO3ggORo7bggUn2e0wL8RaaabzXRpIp5iesV9YumXsdz8G0U8IDx/kvGIfA5N2nMNongxA6MgnTyskkluXS3NpAJrGlBq/cFZhbkAj3WqKoqEQ0NP5ZnHPB9/ncpmuvbdxwbysTOLyYpxJHPhlGTOWWhUtv89RUbqoNHEaww4cqXaLJdFEMEvWKDWbQoLRNdP49+f3rp8DTHvc2+xaBgtFnBikN25OI2KC0XLjEc+wn7H6EWM+CFXJmi6AE5iQw1yLsb/JWEGvoj/Bnp5QgKqY61FqDbTIIH+BSVjLJ02dBk6SsMVCFG5A6XGpLSRvSFrFoiWxouE1MP/d7JFAVedmXqm0Ngj3niPDMz54r2R4hhKwYJdv7u8B98DeU09scFKlFsAxNnYs3v3IwfyE8HUj3plC9IixDs9ulI3grP2hBFjYDEp70/sz5JZpWAbEezC7u1Xa7HeMTIZM8P3HiBynLpiZZB3VZ6hXFikVD6i536rn/RzEHb/bNh31yJG9RBZKFM8ZKwvhn+EzmR0mfFvf4d+79l7OpumJORl586exLuL3v7RpnwrkDKXoBd+x4BrwekqmVAAI+f94+LvPcI7UehG144guEFSWEVdlZttAR0kThLHZm4VhQe0ybcTQengjtwau+lkA6E2auGw3N/S1PqjU0POhiRUUWsoHJZ5K7sDnCxA/EU0+NijjpVcJynnWmTPs2npfixhupPZTX1kZ9SGmO68opAuISoqrpVs7eSt2O8ESk3ksyDZnIzbgHz1bg2URLG5WD5S/oqdpTX1Cxfy340YW+FFzDJ1T2QkpAOULxpDgKK8yxYumm53xcE7PVeoU9tHjQoPftcwqdBnEsI1coClaYW2SQOkN6Pqx71oErYBmmTsC38lxZSW0BhiCHwDn3bEw+YqY8NWf1gge2qOhRPK64Rz3Yhf5kzSCEuZq7hHBv3nHjtqcXLToRfgfivCh0ztphDmoCMoZiDjyChUmjkcd4NhyHkxE8HOw4jb2RT6oiG7Ypk5jIwcyztxbzqi9jIJbVLpyzKmAOP/cGzINqFKGVT6rsi0W2h2jYgIjguCKie6nk+8GSyy7HJAx5MqqTNCNnIKGxR4Zd7kAza5jRfZvCIbTf2aeDVrAOnLAMqddHwt8c7LlYy+AzCGHVAesmpMa0GpDBWPvmoyem4TlqSWbxoWDk/Vnre/hLrTE/wPQjPp/Psl8MogDBPllqgm7qVF9q0O+gg7zvIuF9Ka1RPum7USm3X4UnrgRyh3NdhEQkREVDaGb46lsJJiH1QyFMsZhbmw4C+jUYZiV+37Jm4dx5HDBKnbKyfp5iON38DnLQfm6nHaZDSN3UNfDaZQDpvn1onX1Dm/8rKvWE+Wiw5H9IkwWEEwbDYeZDKEvv7wSDk28ZGjT/kLXSwnCYRFjV5UC1/RC8ixmbJgbB1BisJcdeqWDl0txM7U7zCkJz2LRLB2LbtC9xTQnGhprHRSSMDPIuEjNfUk36wq6V1g/+qax8kL3A5Cw2GQMDiwHF+O6j+L6AJ4C48skzLhLa9lotGv0TEDSciHaspM3MSs92kDzsco2G+vDYgz5G+C+JrzQYCEg1RoLy54JRXi2fdsmXKYE3iA0+g4PHFJX5oVKfWVtxffcBZaedBrPS51ISGf34KVJNxiANnglBQfQGywysdFKX9iMEKlGhQr+dBl+zhjB24ZzE4CkzLsNE3oUQVMTqHqEK5sZ0+uPNngt+VCC3i4e27Y5ibhUP8SHNQPOgu554GseQnfE99fFEFysHDlxbjMFOkjkCyTBkyqx7pWleRimCSSJGv9gukcUvHeE/mN5M/oX0xD9+s1CzKNXsuljXYVtIaUMCtDES/FJdPmUGUsPvvUPdiEcVh5BV2+BXdW/n/lHmYLhVTaKqSvlP5VNn/QRE8iuXE2bIkgtA4oRZBHb5fTWLqjaTmRKcaO28omBVWsvf0cSBkmPO0hWA8W6V9e5rAEIEvtANDMmGI+q3LFyLE9AeLURSBc/CmHJPwgFLKEjpt9DYSqizuKcrlwNnkLZ6FTDHgIqvx4zS9HJIkNFII+YmBpQqdMQ58FhRF0UcHL6Za78Bk3QVGGM9OAJJY8oXwY4V8hgg88uQtF/g/bgXrGIz1T2qR2K3Y/CORE7NvwPfXMKF23ElYC4e5bJg0ZeSiCN6Yl+mysq2q96zJkEFD0hoNKmGTp05CvOAN0Maj4OmYJ4GIeYHXrqMIIO1TrjRG1h5gunciQQPD6hkDW8LWEOTrnzajOGQ9TcBViZUEobQ9+AxnGwjgmTVX4AxbMXMmeYVbtiTJqMNVwzh95NMwnH0XM/h5hUd7ifryGfJA4PA9Kry98g1StLPIloxClojBTKIBh2xgHSsWLRsEMmdjuP91/on5itktdZR5OWUphrc8RA518DMmgBkR6FV0qhTM6JFP4bpVgvtsQ0E1trjOTuHnE+1UCfMcG2zYj+aJhHe7O243lA4FWMB33QY7adqmIkOsmKpOQi0mjtH+juXhl5eu/SebSqg0UHtkTW8QeSvPyJqkUhksHTd0eDbqYD5K9DWhInCjLAqAQFFgMVFsai/bmL+PfAztFY13R6/4qhgxp3PAwWI0rnuB0m9+yb8Fng+1CzqZ1f7k3sGwUZpiN46WJY5X4tEfeaAxEfHqVhdmBGIf6efwhYTV65eeP/6ACEqhMu1E3S8QyRRCjHFAb8X8IPI11cwTP8FBjsSA5e200iSlPIv0B6vwZfhYxzItgIGvGd/izIJNM3+b2isnQCOOGuCsWVloHhae8W4oQ8ioochWbcbgxEI3YLYsM4Y+d14JsA710HAwIxEyTQ/rl0092++NO6QaZU1vIQVwMaAP6aKHIbvnhLhWJ4FfkPmCGmEcNuKOdKpVVjdd6Hqe1z9bfmHjO9hvJAu4/XxRQB9VgRz1Ipj94MtC2dz7kTd1/LhrvQ77HxOYFLx7CokpU2ZdbkWiVwcmFWKOdAANvAwkVqcunnt4vk/YYN0AsONy6iqoXB5umVRzMOTiaVzn4TZNkwvSS8Eo50FoiJXRCGVToZWIdFSSuWSQTiAqoDQR2evpUB2JD3wggpGYAE+ORkVET4wsWIMwbkAhjvdVPrqNUvm3km/LfRT/Fb3++8BwaskPPQYcYgPEKlsPwob0gfjs0xtN2HqYqltaiGZQyUUKlM63sL3IMxxwBHHVjJOqePoWC7BoVGgIRhGP1P4YeEgYMEnumrJIYMwdz9u+UtL7VugJYgTIplFLaH07PTPkHN/E9SqxrydrMwVUJPPPAFDzZ7N3Pqz4aQ/CQI7G5EuGLQO2wlMADaXs9I0sk64/UwbVeNmcgE1Jb9JEeGHT5FxQR+wMQwDKgW7sdjp53XpfrdmyYOvZwY1eHNHSzbwhm3sgZfgqrkKwkrHQ0fEUefCKJi0223sK7B2yfy7eFOb8MZxHR/P0ZBP5iFrBr/DojAklLkq1Dan4YWu+Z0zBhkxAksaq6GV0/b1yPfvFmgPTvxZcNJNpHXfh7W+NykTIq6kzn5LejJUk0Po9pnm2ttXYwCPotTLN3pBOu0xoIp7Aw6sB2oqShhjFhnL45WEBtE4H2NZ7TMwxO8GsfnzHZxEreqQWRU2SFJUzWcBb/gMH/BBBvGCf8HFYGKYQojDE953YRXeAx1y59ql83Yp4cYn/TFsqqO1A+4A6mEfML/yoA3eqKkgjajAYQKfrlxyxCCerK6Wofa4PNAerFupZnDN+8L79EoiIuFHZzJlyn7hh9pEmWazb0sNmTzjWxjNJ/ergv27ORhbin4/ULbvxxH3Zvq3+qOYybdUPG+HjdAtrO8NQvdWuSn7taZNlQNNmiPmIGj7Ae+enqgJWuxKge86rLL7EPmTNXCnX5HCeaZ2yQOvhHfub/DA8CQ3O4LwYiibihWFX9gEiodNOV780UVLThikouJGzJRjM9KUdSEc8+7wDaieqT0cRJ40SMyf1i5dmlKEnYOcmyZNAgkMx3kZnPYJQbQlJ/3JGCt/UGk4u94sT3dfx+6OJdwRIuMe6AxYIth/C+Q5FxrtWCg0zuhj2hnUIGUPrAv+a82SOa+HzygtyB8djFSF9WV8ZwdvxgP+oZ4ydX13I3ZFf2/x3CAHbM9NyrdUGyZkqeVUgmUc67TNBiCGEUxlZgG4gIG97qp2hpj3zp/b03AXOMoJQYUxb1DD+RCj7BYRoSaTwCy1mKuYy5NZ+hy8NeuCfYb+gpsnEPlN4jPrp7O/0RH6SuxPW9PWE+XTZn0fvLQsuIdTltj3Art/2/ZDsNmPVedBFIncM8ZeYGUD714PhSfgfIeTmyBgl1kL4aXsvv2RSHVP1sUaIruAkzLIChXG8hWs5LwWBURzQZNd5Z16Vy4YRGV7HjllZk8QxElqB0HIVPTChnOHXT+dB3DsBVJoPxG9b1zA1FJ+R5GtLW+Q1lbkCR0ShFD3/VAHrmAjhVI+3hR5a1GXylmqmvsk0jIehc9xHrUoyASpI7YFn2zo4HrvWvgcv8dEo4k5w7wTRnvwNgOfkpwlnJPAHEY4udnsvux/sD7JdffQ8FthYR2OQBgZRK1jx7XDmMn81rKqT3gfPn77OOhqpeMMEoTqIq4cJg3ZMyBSdhobi2ELS91TEjUPGZtqKegbVffXY9vOV5H6MDWfDIKNIBRRh2HplgP5VjC7DnPqh2COabhOExNKVSAlIw31Jn+BeYH50KKbQIhavqVne/A2gz8PZg7MyGBpgqyFz/9lTB0rpqHZid89G3V9EGD4BJpV5aY1g6cL/WgvMtMuqOFyTDigg/0dOgLpCK8WEZBdmm2vVpWEC4TarTH7G5q2mnG9Nxl1QTl4kghSl1qyZvG8dQDiN9AahIaz0Jy4YyQvBvn5RwJZESTy8fjzWyqCrnmvIzbG42BssEkbJk41qakcrSb6Ce7ual8dZhAMt98nF6vN/EJEcOEPSeOj2lJIibyVhF+zlO/7k1FhpDVvDbZZMWx1MoSIFVs3Yd7gPTjs1CLUPMwe4AZllTA5JjASR0ed935eS+iXYvPoV7ggDCWgNcUs5JazPgt97zCD1NVt8XssvbJAUrDfjN7gr6dWBeI37wkkCC/ntoAt6v0afVByW/t+1aZ8Lc4yYxXddWAQPtzkbzCohf9/4kkyCb4OOsCEJS8lsBgQO16FTGy+noDIIA3o3MAbHa8YcO7Xe3R1PHSYQULkwrJsIgScQ/+JCxlKybwxB9tHy3mtn21kW1TEB1GgtUvnPghfZDlC0MSBWvPBdS9GNDoMWuSnrA8mWYifbKv/LN2nfET1qjNPvMh8NBSqEs4XYbufSC8tnZrEk/RX+N0VS4cZJCO5cJdv5gTd9MO9PftXVmIrUFXyJi0xh1fiN9Fl+ESBAzv7+8y1QvGlJx12po9ha2XuT6uYiQ7757SE/gW2mPubH4T3xwd//YRKqfmTx3xJaBctORichOoa5pk30X5AISMwpZnHh0Yazf48QNQmDwxSoarGvN1A37zrIqulQod90ZzXEd68HWFfZugFJhUc9kjExEYHtxD4is+xww7zSUkHx2hYAG0KM0vDGmvMjzHCibU9eMNTxdApF5+GuRanq/pkHWaQBFNHULBoeU3GHAhPUY0yE8ePVuSBEEJHENJphD8BpZiTbR/0Ul19l3LYbSNyA5YNf4LQZjOHXRqR84ZMuXgKbfCuShw5QKLH9JQNjz22AzLzPh1rrOCRKaaBKFWBHGw/eBPb6appJx1mEGgGpTaKStKroUHeY54b+rtHZbquv24gB9huUYWaoOSOJmhwVAvmbHHrwfgplcO+4bF7d2AO5Hpk8BIrijgUgpgKL7RbgT+tqzuqHcFeosIPUriafgsie0zHUfNDgRahED0d74X8OrUIN63uSFsH/izMXD+qyKFpVjrOIBh2SkBGbmDmLA/mQkgIOtQqiEBOL5/01cGKCHJob4cOLna+PB9ILkP6eJeLCgUpGnLNorl3AherwCR4e5tiEm6Xwxn28vJ/1PyMIxL2p9nofB5+IJ2E80N8ky8Cm39S80N+Kj17p6mFWVLcjknU/qShTtemiibjXN5M+lGBhUy054JBmuqDkz6f6xxQyIn4YIMw7NwNreITAd7y03Rzxw6QPazyg5CKJX/oO8L+TGHHqs390xhwv8+udy1rbxJRymHn27jEz/hqsDD6lXsIDn6N6JsyN+u1UmzNlOI7UagpKESZ0GnjtSN4VZn3GCFVgpQLsTqhMG0IGtwtn3LxdEQW71BN0n/k+aDkhEHQKXaWL1pZBonwT8T/gxetSL5nzhW6cRlS089msmIu1Gj5pElKFQ+ePPMXYMByrAdhjldO+hLgJWdfHHBKxdql85+FkptHgYHKCa8SINz6H4v5bs1Zg12zIuWLcJktsqGxJ5qi/9AMB43YzDQYgd1vHlHgg0hFnidSOSakR67FB+ncjf0NrgaTvMo37mYm1eaKqJSZxc4h0eYmIgDxpD3zIohuYUb1wWHTL+5HNdoBJpFgjihT54dMnjUVGyDcAAYkorv0fEIiCGQg+f/HgJcvnFd2OHiEAgRa1pyGV7Kd40dz4l26L4qAD+APN/ijw46lxYvwqnGaWuwnYt4o8Ev4nhRsDXUe3nr7sDoHwZIpydW5HP0hcyhNhfpihrkUc1V9sVqyAZkOI/EOuLcGT531LfqGbC5XDCJUg6gU7wd5EJ19hi+khEWnJDtCvszs7Wk72osDp884pIlJ9sMnYacE1jqTOQZNnTkZuw8uDCJXexgxRwjMeTW0w6G2a5fO3YS6fwmtQWtXmR347YfEpbzFH7h4l/OlcoUPMImyNNYumfd/4bBzOyhaAs2YBLg5H5J8BYMvlORq3HNoclE4h8yBHXGeBgyjuGwbA1JMTQbhhTfGG7MHrawZzH7njEGaIdGTl6GxBoY2A6cUmxNAjerGAN2RbyJqcTqZhPYfpYpCgs8sge8CmcLfXJfAV0eDiPxOwV7EpmtYnrRYTTzBfsU31JVaChKq7GagdJUfGGzFELUnDb0ZxFEb5GmRYAKHPTLw/dJ+Pye8n1uHnWIhFIrup3gVc+qfrTEJJPopQjNrMNYXqnGnyQVa8IXkHjcu+7HFW259OhKku0HTvnYk9jR4DYv7xqs3fPmRNWoyeAMRvMnP+u66RfPWCAjl3KrzgOATS+Obhk6dNR1vo3pKIncTeCFx8EXxePeO1heQPIudT+7QdedXiQXxLaqjiUTz/gbhY7UuAVcgVSbg61dA3ojArLJJZPA/3ocxl4B6vBShXiWhmlfUZX4pOzzBxVJTLvkB8PA4YPeZOnDYMT7Xwwa+v3rJ7BoSBE2uLgN9rgABjbBvtVVVqWHTp+N9M9rzYJITMKbUJKYyt7CxAeReD4xvFUzPpQxkrK2aV50IYaDgXNdTU6+s5ix8uJ4lvN7iFdyiKu5wvwReBtN9B7tl/AF0FEObTWFnXEJUMYZdW5K3Q8P9RTEyxiq3DIJWaGuSW6sXzX4ae2NdAH8ENqVnwMwiAiLBmg2+C/saJ+1dDgQ8AqQ8hunV10TS+kgzD01GSz80U7sjPbD9QTneZHUGUhXOh/Y5nhP1tNlRD4tJXwf++cVQhCMRQr0UHScSqIW6ZCFufOKYs4ADD99j0p6lwv4rARDbocM+uUt2IFdAgfGpDRILFtSBVk7aeejuhfBJJkCzKomB6QJscoH8CGwjpgNHECSTICCXwVK42zbMpzZU3bsjFJwKpFbWsyTUBfzFjQMmVx5qYDoApPFdMMbRKrQMYY1baJ1QCHkBc9yNjUX+Db9pwSjhlXMGQeWCIUvFJItnPwJz6gxIgMfBED1I3GiV9pCEeuVOuzEAPBOhvpkCqQcian4ivO2NqQYY6ZrXHQzA6+ARtema6giq50YQEabTw3a8Yu3iB1Yg+jEZ+GTTn5mCFwdci4Fish7HgGjhlpzY0tOcNGTajAvWVM1/mOanYqrPTK+yB1SZTtAE1dhHDU9NhGT/DYTgvzOfD2F7rDATyMZRKSkkZB14oQUxwbDT27FA7iXc9hK8tzc1ob+HDWl38G0jbJ1bDYFQeoLKjoRzdxzweipOjwH9lYDRQDOgO7WJhMJ7GnQUgaYScNJvgub4Geugr4uPIqj8+CBoImQS9ZJ51xoKwBagk3SAGOND40jqxHaDVHOBFOVWM32Qn3MEGOAQdDAGkwybjKawaTWcJz8qZiCviVpoB8ypiXwrKruDerC8tcsqDoK4p0B6UnjgnRrvAuI/qImzPQ67WpKKJUW3MFoXMMdnpGN7upj1EU3IwPfErpI/wV5e48EctcAJnHdIwCDIg/okaYQfbO/cW9PNqaCDX2l6ZAHyEV7DPks12KBujeNotSCs1UgSXQk6e0Q3YzeC5s4GLZWQMVA36Y70R6aDdgItee6nSCA9TzFHkx/sMwf7kTcGYeVkEkrB2qVV2/AuiHM8OzUVO368Ao7VwdEm3r9CYP1JGSADwGIdhf/BEmYLYpVLVk3OQANpKjSKVyb8Fa+YGcI5l3xkCoM5IcJgzJFomz5qmahSuexXR0s4cVZk6XEIgK1YXse+pfDh1qQNML2O8PSeN7AdMFObWr4z4CUceSv0SVAoNNYunre8ttg62kmlf4ox+FSPRmlGY0BoBin08zXZML0sLBxIWYj78DUcuCAjoJNiMAIzx2meYcrJv4ffuAdTTSqQg3oghkF7+JKkpahtla9dOv8x0mlgVjUb57wyCDuupGAQkVqz+IHFkPqjpWefBq69EypvLe+hZmGGKzk6/Kjf4Asghq8+eA0r8n6BHcuHgtGu4BuNaMOWb9um1CqqaNYp1nmgxfFcA/YoFC8YOPjo0Zjk+QOts5XnVJ4WXzMH8/M6I1aEoE0kig92vDeLaT4aZvSGwVMuHkMhoxz2VirhKQUv4AthVXjLPbz7aD1npz1fmFYYDEzULpn7Gzisg+Ew/wQ0UouZdgjUqEFmQYshzZLiOe5kHjKB//G1A86xYDIAHEGe4La3CCFDEHlJ7NN2P4yTE0hL3Dgiw5Tdi45yOeg+TK39DaSEcswSy52ahfIF3PYCB35IQ2yoZ1vHQA4cBabuDd4nd0Oaym2acNYBM29nbHKNyBucu0SFS8aj1AELMl2Dmqh52ftM8+stfwUr4Iy0+4EtU7/3d4Hzb2LaacTW/GhbjtbWK8JH9WsXzbsPDuhhGLi+sCpgSqI3vuPYDZGcfgqC1vaPqnqI5oIgXOlOgNfHRH7/Kr8EnaLWrF48m/tz3Qyp/rvy6jVnwXlA0qscD9oYTIFKk5pqHvjCf9J1SNvkB6AQH3UPUp+gRRrxeRX3PCpc7W/BfFQzWtpXzw6OfQvGUC9qYVQnu4INrON6ogK+S8BsfCzkfISM/wDp8AOqXZzGqgMTC5Psi7mqz2eoRNbt4PkQ02yiZSG+2rre8v4c/I5DYu6xiVtU2B487V1vUV2X+ukzip9z5wMGuhncoB0D//1EWE3HgQcGwXQ6FIxQhmHBLhmqJDFCO3G0GW7uaux9ukoznFV8WWhw3WcMhofpA7VTOkeDtAQCgAUvamE4TVaotSIVLe5KqN8JpmmAKZSp5p/KuC84Ib0vKGniXwlWq7lqs4j9XGdA4lfMmNGIOkT7RGZemINMDHbPaDIh+CqI6mn96MQqGz3jYubhQYE3E4A8HiuzC/UHb77aJhN4Q9daIf6Jc/zsX4GZX5EQGoVsIp61YEbjn+VC3wYEhPyd52GnnoodDKkp1Mw6bUz1Yh5InWwkxWcZDf9CsDcxCwWKWjBH89OfswiFVwuhm4AfDCG7by3cJvo+ywyizAfk1uANVCY3J+POinyVGWYPvZ1G1Bj87qP3bYfQx31dZClum0NRuNhBDIS0HDJKB6vzH4d9m6eiYsq0n/NUuCMfSqrROA4xCrXtqLI3mEotxXqfOaghC8yRpxHoatVy+HPKHOxgfgiYZo2ynWE/K0bJPS6Zi8NaEaQ4FzE8dQRu4Cw7j1fxGmz7/Y1l8bFCKWCgCQM5ZxAVeoUTPnTqV08YfM7FR5BRfCe0qc1cHKgVhcMrKksRyfgGQnioE5MH1B0oWJPyJL8LpYCBjmIgpwxC5mB8n4yBNLNXpK01LaNkSLajwIbPhysKUyXmDZhA6ouQn+IQTFdwAdLH2Ch5Ke9FXL3dMF5YZ+G7gIHWMJA7BoFZReZQu4zY2svwC6KYj/gy8u6Xc0KQYdpgJWHoTLUGT7vnyid9V60oHDxpxniYU1yhR7uTqRpYtok1WlLeg4mgXf4kYu5t0nYBLNzwucJAjhgEzrgyqyoPR87Ec1ib0Q8pAkhC5HLSaEV5g/kGVgEOUYukYAEp4t0/34RzE4ZKFV96Wwo7YPBd3osD8ieD4PXCMoK8pp2mqf+WI1RdjTmEQilgoIMY6JA0D9umjwFzxh4ydeb39FjJrXZjPd9Ey5lN5gNYTDbkYiY0dn33w0v/2LQoHkwyYuEWvWnhS1ghvrltpf/e9Jqmt9zyMjZ/uApa4k6YU8zsY50622BiG94FeBlTN0JTL6O6wmEBAweEgZwwiGqZGgEO+ZApM27SIrHrIc0p2SnF6XtwAg+JeBEueML+SPJ2rIV5cP2SeRtxvt3Sb9q04iK79CswqX4EM2oM6uAzrJtRqjSSCSN2MnknUpavVol9WaQQsIJCKWCgPQzkjkGCCBIa9JAbdQ2I+XbGlNTilzClHYyC8yby+QXypuA8eK8gCvWCdDWkDnibsJylgQCD6jEbbvSB8z0UptNo3HcasjEPY2IaNJE/W06zCg+BOQwnmZyHlWCz+CwK+5TzeLiqufDnXw4DuWQQIg++QgUccphbky89GW8BnoN1HOXqtdBY3wHSDeclIP2lCV8F9M91MfiHSXAygCJtQAUnf881vEwYqwCoMUj9NNuw0l3HWgHk+1rp3+Hdfz/mNaQTwKfC3EuhFDCQIwzkmkEUWE0+AKJX5Y3mzxBa+pEeiRQjV4qMQEIPJTx5gyRPOBgwCODhaeliDtwndnWWuf1gJyyyImNhh76NSCK5BrtPLPGfUxWF9eJUoRQw0HEM5IVBCFbouPOYi+axruM72Cd0FiT/QBA5lAUWg3EDZ38tOVZ8qaSpkMCbGIZagloG69dhVCG337FrwUe3d/+w5PZwkU0w3xE+yyYLpYCBnGAgbwwSQNcsp59Ms6m0/6nghQngkDG4Zxg+fWFOYRkxQfHBUQtguNAFZhXOfIzza5FS9TLWXi6tOWnoMwwGsH7WR3OOx4VSwEA+MJBvBglgjmsVFQLb/DfPw2eqSGOpeRj2zuILQLGCzovA2nLwnYSDXgdG+Tha6m7F/MnuzM5zTiSf6zMy2yocFzDQmRhgPr+/W+J+TRTGwWBxNVEIYDuJqTsTLYW2uioGDjaxqcUtItgJL0RS0yrAvRfDhLcUvgsYKGCggIECBgoYKGCggIEujIH/Bc0PCRSytgUpAAAAAElFTkSuQmCC;" vertex="1" parent="1">
          <mxGeometry x="300" y="540" width="44.44" height="20" as="geometry" />
        </mxCell>
        <mxCell id="Bzk-ISGM82NvutfXo54f-11" value="Load hello.proto" style="endArrow=classic;html=1;rounded=0;exitX=1;exitY=0.5;exitDx=0;exitDy=0;exitPerimeter=0;entryX=0.5;entryY=0;entryDx=0;entryDy=0;curved=1;" edge="1" parent="1" source="Bzk-ISGM82NvutfXo54f-9" target="Bzk-ISGM82NvutfXo54f-3">
          <mxGeometry x="0.1988" width="50" height="50" relative="1" as="geometry">
            <mxPoint x="220" y="610" as="sourcePoint" />
            <mxPoint x="270" y="560" as="targetPoint" />
            <Array as="points">
              <mxPoint x="250" y="490" />
            </Array>
            <mxPoint as="offset" />
          </mxGeometry>
        </mxCell>
        <mxCell id="Bzk-ISGM82NvutfXo54f-12" value="" style="shape=image;verticalLabelPosition=bottom;labelBackgroundColor=default;verticalAlign=top;aspect=fixed;imageAspect=0;image=data:image/png,iVBORw0KGgoAAAANSUhEUgAAAGQAAAA+CAYAAADd977FAAAMPGlDQ1BJQ0MgUHJvZmlsZQAASImVVwdYU8kanVuSkEBoAQSkhN4EESkBpITQQu8INkISIJQQA0HFjiwquBZULGBDV0UUrIDYETuLYu8LKgrKuliwK29SQNd95XuTb+49OfPP+cudWwYAtZMckSgbVQcgR5gvjgnyo49PSqaTegACfwCYAAMON0/EjIoKg//A0Pnv7d1NmS24Zi/V+uf4f20aPH4eFwAkCuJUXh43B+KDAOBVXJE4HwCilDebli+SYtiBlhgGCPEiKU6X4yopTpXjvTKbuBgWxK0AKKlwOOJ0AFSvQJ5ewE2HGqr9EDsKeQIhAGp0iL1zcnJ5EKdAbA1tRBBL9RmpP+ik/00zdViTw0kfxvJcZE3JX5AnyubM+D/L8b9bTrZkyIcl7CoZ4uAYac6wbrezckOlWAXiPmFqRCTEmhB/EPBk9hCjlAxJcLzcHjXg5rFgzYAOxI48jn8oxAYQBwqzI8IUfGqaIJANMVwh6HRBPjsOYl2IF/HzAmIVNpvFuTEKX2hDmpjFVPDnOWKZX6mvh5KseKZC/3UGn63Qx1QLM+ISIaZAbF4gSIiAWBVih7ys2FCFzbjCDFbEkI1YEiON3xziGL4wyE+ujxWkiQNjFPalOXlD+WKbMwTsCAXen58RFyyvD9bK5cjih7lgV/hCZvyQDj9vfNhQLjy+f4A8d6yHL4yPVeh8EOX7xcjn4hRRdpTCHjflZwdJeVOInfMKYhVz8YR8uCDl+niaKD8qTh4nXpjJCYmSx4MvB2GABfwBHUhgTwW5IBMI2vsa++A/+Ugg4AAxSAd8YK9ghmYkykaE8BgLCsGfEPFB3vA8P9koHxRA/uswKz/agzTZaIFsRhZ4CnEOCAXZ8L9ENks47C0BPIGM4B/eObBzYbzZsEvH/z0/xH5nmJAJUzCSIY90tSFLYgDRnxhMDCTa4Pq4N+6Jh8GjL+xOOAN3H8rjuz3hKaGD8Ihwg9BJuDNFUCT+Kcpw0An1AxW1SP2xFrgl1HTB/XAvqA6VcR1cH9jjztAPE/eBnl0gy1LELa0K/Sftv2Xww9VQ2JEdySh5BNmXbP3zTFVbVZdhFWmtf6yPPNbU4Xqzhkd+9s/6ofo8eA792RJbhB3AzmGnsAvYUawR0LETWBPWhh2T4uHV9US2uoa8xcjiyYI6gn/4G7qy0krmOdY69jp+kY/l86dLn9GAlSuaIRakZ+TTmfCNwKezhVyHUXQnRydnAKTvF/nj60207L2B6LR95xb8AYDXicHBwSPfuZATAOxzg7f/4e+cNQO+OpQBOH+YKxEXyDlceiDAp4QavNP0gBEwA9YwHyfgCjyBLwgAISASxIEkMBlGnwHXuRhMA7PAfFACysBysBqsB5vAVrAT7AH7QSM4Ck6Bs+ASuAJugHtw9XSDF6AfvAOfEQQhIVSEhughxogFYoc4IQzEGwlAwpAYJAlJQdIRISJBZiELkDKkHFmPbEFqkH3IYeQUcgHpQO4gXUgv8hr5hGKoCqqFGqKW6GiUgTLRUDQOnYSmo1PRQrQYXYquRavR3WgDegq9hN5AO9EX6AAGMGVMBzPB7DEGxsIisWQsDRNjc7BSrAKrxuqwZnidr2GdWB/2ESfiNJyO28MVHIzH41x8Kj4HX4Kvx3fiDXgrfg3vwvvxbwQqwYBgR/AgsAnjCemEaYQSQgVhO+EQ4Qy8l7oJ74hEog7RiugG78UkYiZxJnEJcQOxnniS2EF8TBwgkUh6JDuSFymSxCHlk0pI60i7SSdIV0ndpA9KykrGSk5KgUrJSkKlIqUKpV1Kx5WuKj1T+kxWJ1uQPciRZB55BnkZeRu5mXyZ3E3+TNGgWFG8KHGUTMp8ylpKHeUM5T7ljbKysqmyu3K0skB5nvJa5b3K55W7lD+qaKrYqrBUJqpIVJaq7FA5qXJH5Q2VSrWk+lKTqfnUpdQa6mnqQ+oHVZqqgypblac6V7VStUH1qupLNbKahRpTbbJaoVqF2gG1y2p96mR1S3WWOkd9jnql+mH1W+oDGjSNMRqRGjkaSzR2aVzQ6NEkaVpqBmjyNIs1t2qe1nxMw2hmNBaNS1tA20Y7Q+vWImpZabG1MrXKtPZotWv1a2tqO2snaE/XrtQ+pt2pg+lY6rB1snWW6ezXuanzaYThCOYI/ojFI+pGXB3xXnekrq8uX7dUt173hu4nPbpegF6W3gq9Rr0H+ri+rX60/jT9jfpn9PtGao30HMkdWTpy/8i7BqiBrUGMwUyDrQZtBgOGRoZBhiLDdYanDfuMdIx8jTKNVhkdN+o1phl7GwuMVxmfMH5O16Yz6dn0tfRWer+JgUmwicRki0m7yWdTK9N40yLTetMHZhQzhlma2SqzFrN+c2PzcPNZ5rXmdy3IFgyLDIs1Fucs3ltaWSZaLrRstOyx0rViWxVa1Vrdt6Za+1hPta62vm5DtGHYZNlssLlii9q62GbYVtpetkPtXO0EdhvsOkYRRrmPEo6qHnXLXsWeaV9gX2vf5aDjEOZQ5NDo8HK0+ejk0StGnxv9zdHFMdtxm+O9MZpjQsYUjWke89rJ1onrVOl0fSx1bODYuWObxr5ytnPmO290vu1Ccwl3WejS4vLV1c1V7Frn2utm7pbiVuV2i6HFiGIsYZx3J7j7uc91P+r+0cPVI99jv8dfnvaeWZ67PHvGWY3jj9s27rGXqRfHa4tXpzfdO8V7s3enj4kPx6fa55GvmS/Pd7vvM6YNM5O5m/nSz9FP7HfI7z3LgzWbddIf8w/yL/VvD9AMiA9YH/Aw0DQwPbA2sD/IJWhm0MlgQnBo8IrgW2xDNpddw+4PcQuZHdIaqhIaG7o+9FGYbZg4rDkcDQ8JXxl+P8IiQhjRGAki2ZErIx9EWUVNjToSTYyOiq6MfhozJmZWzLlYWuyU2F2x7+L84pbF3Yu3jpfEtySoJUxMqEl4n+ifWJ7YOX70+NnjLyXpJwmSmpJJyQnJ25MHJgRMWD2he6LLxJKJNydZTZo+6cJk/cnZk49NUZvCmXIghZCSmLIr5QsnklPNGUhlp1al9nNZ3DXcFzxf3ipeL9+LX85/luaVVp7Wk+6VvjK9N8MnoyKjT8ASrBe8ygzO3JT5Pisya0fWYHZidn2OUk5KzmGhpjBL2JprlDs9t0NkJyoRdU71mLp6ar84VLw9D8mblNeUrwU/5Nsk1pJfJF0F3gWVBR+mJUw7MF1junB62wzbGYtnPCsMLPxtJj6TO7Nllsms+bO6ZjNnb5mDzEmd0zLXbG7x3O55QfN2zqfMz5r/e5FjUXnR2wWJC5qLDYvnFT/+JeiX2hLVEnHJrYWeCzctwhcJFrUvHrt43eJvpbzSi2WOZRVlX5Zwl1z8dcyva38dXJq2tH2Z67KNy4nLhctvrvBZsbNco7yw/PHK8JUNq+irSle9XT1l9YUK54pNayhrJGs614atbVpnvm75ui/rM9bfqPSrrK8yqFpc9X4Db8PVjb4b6zYZbirb9GmzYPPtLUFbGqotqyu2ErcWbH26LWHbud8Yv9Vs199etv3rDuGOzp0xO1tr3GpqdhnsWlaL1kpqe3dP3H1lj/+epjr7ui31OvVle8Feyd7n+1L23dwfur/lAONA3UGLg1WHaIdKG5CGGQ39jRmNnU1JTR2HQw63NHs2HzricGTHUZOjlce0jy07TjlefHzwROGJgZOik32n0k89bpnScu/0+NPXW6Nb28+Enjl/NvDs6XPMcyfOe50/esHjwuGLjIuNl1wvNbS5tB363eX3Q+2u7Q2X3S43XXG/0twxruP4VZ+rp675Xzt7nX390o2IGx0342/evjXxVudt3u2eO9l3Xt0tuPv53rz7hPulD9QfVDw0eFj9h80f9Z2unce6/LvaHsU+uveY+/jFk7wnX7qLn1KfVjwzflbT49RztDew98rzCc+7X4hefO4r+VPjz6qX1i8P/uX7V1v/+P7uV+JXg6+XvNF7s+Ot89uWgaiBh+9y3n1+X/pB78POj4yP5z4lfnr2edoX0pe1X22+Nn8L/XZ/MGdwUMQRc2SfAhjsaFoaAK93AEBNAoAG92eUCfL9n6zJ97dyBP4Tlu8RZc0VgDr4/R7dB79ubgGwdxvcfkF9tYkARFEBiHMH6Nixw31orybbV0obEe4DNkd9Tc1JBf+myfecP8T98xlIVZ3Bz+d/AWTTfEtdRHYQAAAAOGVYSWZNTQAqAAAACAABh2kABAAAAAEAAAAaAAAAAAACoAIABAAAAAEAAABkoAMABAAAAAEAAAA+AAAAAH7QKxEAABkvSURBVHgB1VwJfFTVuT93nSUzk4TsC7IjELaQyCYKUVyoilZJVHwVFBUVbbFVaa0tA68q7auW1qoNrWsrlQkCLvBQqAkGCGgoD2sAZQ0hezKTzH7X875zJ4PZJslMLtaeXzL33jPnnuX7n+/7n+8sQ6GLFLAd0ZQdqRcp+y7ZYowpCJhEwr0RlTWzLW4n1SWRTg/JRkFFFVsDlN1+Udp2USoNkqEhY9Wzb8+Vqs+bpVK0QKmY1kkmCDGkAEoJCLKVHjlmd8q4cXUABI0AlHX7N93ztbf6DgVL1lB30HDqtWiMAEQiAZIErhQA2zmh2hH/TcUpxLKsLzt+6O8TZHb3j2cXBTqn1+Oe1SOTznlUOew8VWQXXbt23ixuf38bbmlEmDNAY/XrUApFoThZRG3jJtWNXXDje+HyQZr4ZUtSWduZg4tFtXWyihUehN1FyOG02pXSoOgS1Wd6SEkxtOoPeJLzh+Y2lGJ8uICi5K4ZDO5JV0BwaSlLFRSIuLV1aM3v1m2Ud2xBstEgIlVmQSyRu+pA24AxgGtUKa+Pa5o6M2ieNXMemKr20lI7C1dNMA9Nuvpsdf3xtUcbfS8rsmccRirokz4BikeUghiP5/z4LxtNT3nL3ngMNLMayh582zqqqBsgxGSEhVL/5l82s/t2mYWUdIGiaQOx7MQiRBJLh2XQvu7tPhyHGQZTXjfFT8lH6vcW3j9q5twTjsJCvqDALobzhjqoxcXFFe0Zo1887/76l5LkzQgVH04R+xUUE7JCSBaCvLO9er4xyXT/U1ufewFybI09165vfmMeu8ZH/XQoP1/riU1/fe1F44E9072SKoJNNyAFOq6iULiP/87f93avxakqRQX9ssUaz/ovm71h3O2L/1Y6D7GFDofUvbLLly+XcoPD3kk0pDsYxtBGuKV7mlifCSgkCH5PXKPrzP1ySsoNxXUfmEOxg//UBZAqu53PP3RIcu7auZg+sPeRltPHZNpi48BUDb6GHTlAz5cMgp9vnTbr8PhHf7ycRM8rxYBS78J+oKjQPX/MvN+auSHlNM0EdatIOCNQ+qDfmVTdempVY217bmVlJRf+ajDXQQOCoSI5drsYrKkZ7fnk49fbKkoRnZxFYUnsy0pFV2eGlZn2Fq5t6myf+c4l3ycva3wF5ilSRhQMI85sK68fnzbxWY62HodxmX69o6NQVVFor7d+zMmW07/4xPfVcG2kF6lCA4wfFOFpvJGVpZCyHkxL3M2Wbc8WLfFA4ioHZmKAVegrGVgamsWUz4Xo0ZNo6vqFi0fPLaioAt5IffLJHqaqe05lZWX4qqUrGzlG9niCrhkqlmyQRo+KaUURPsGqykhYyJSNZnrP3r3/3Ld1l39N94pE8TwoDSkroLT3G1/f8CfTof25PhULMC7koyi/76SQPSUFpbikdMZ32eXrxy66/d3iPMTllJRcIPG+M0DIXlAgTz82ZOuQuKy3Gd7g7i99NN+HSB4j0e8xNbaeulseZrrxt0feGhSfxAwI4Y2CMiS7PnxvCVNRvryl+qSMzLYQiUfTqj7SQoNFoyLxzmmzKib+8LHHSNL6m+yaRvbxWo+v7n7ibt9tly5Yb2FT9tEMJ+ioJCFDAHwi+F0Jtc4zK32KIc9RVRVzp4wJEFxZrPGGcPLoRPeef7zhqtyL6CFpNJKg4+piqkCmwBus28m3TZ7lTlv2UCGRMvE37DFOWSycOKMpP3PyL3gm/iQZGpP89AyqqtB+X8uYkw3HVp2UYueTqAHBDgdD5S+XgD/Y5nc3b2b270YoOU1EskymLnRoI+EN8DfcrbQydgrir7lucfLQobWaRhbYYyZmMhrzK9lfjE4a+wxDm5r01BLSaM0/kUSD21N3+emmUyvWlLycCm5s1AKJGpCCoqNaIa1/ev41w4GKS/0sMQF0zCraFUENDEQJAcmclk0Hps1YO/bm27ZX5uVpGtk1bfRPhE/GHnS+lxp3yasMZ2yPPofIb2h8ooLpCnhtLW3Vt7tS0a2r9r5mifxG799EBYjdUcWXIbu8uVJ5sPas4QftZ47LqjnVoMC8EpmIg7/BBULiGIsmCvPOqdP/MXHl46tJhnmVlTFrRvcKLbfb/dcMn7beyqfuZlgOJgej7sTds7zwrBkIcGAFf1vKeeepR1mWnvmHEztgpmLgYcCAOAAMe1GOeKLWl7unSn3lGeNC1JiVSau+WoQZM1IADgKKNkM68PK7pqQZmW1v5l3T5riGP/7UXeTLUjI/FsH56/rywJ/uzLuxdfbIGXYDM+QYRcPslM6B8EnA1zLybMvpVV6Pd5QD4wG7FwMCxOHATBGAAbxhKtlHbTlcA6OduCxpR+4LdLPgQQGgSHCZQ6BA46IGhRhgwhvtLbQ0IR+Zr15wu8ViaQzxRoFu2hGWOwE4I18+dknCiNUsbakD7hu0cofzJleQE1Ikife466efbDq98uiud9IgbkCqOCBAiopKtPI2fCy8ua/eNJzGgmgWA1x5fC76csZvUFvraeRDcURHNLNFWjdwUCA1wyA66JPM2SNoeU7B6pE33LBLL97QKt7LRxFVpEz9vG13smnoSwwN8106my4Ciij4LU5PzS1Og3Pxmm3r43upRo+ofgEpdGAg7CJlS0XwsQPnDIWtLq9kYBAvA960IKIPht6EmiYuQe7Wr5ALWUFLiPEK8cmAuh3wBq0qgoljedfU6dvH3/fgWjtkrSdv9Gh1R8Q9dntwbvLEYqsh/QOG4fx6gwJuPBX0tSXXtp5+0J9iu/L1M6XGSHUJx/cJCJgqvqSIEg+flWaXf0W/cLTGh2w8xcggabLuw4NGeCQWfZTzMBIzJiGfrxq1qEYkdixGES3pGxT4lqYl1usyOHMvb5jw8zX/RSq22uEAq6KvGQk3uPt16bxb2q+8ZNZ/G/mkL4BPdDePMLVC+T3Nl5xznnqi2lk/FjSnTz6JCEiINyjCG5b3D0jvHKxlkNWIJACDLM9qQYbebVEEdIJORRV5zyCWEpGoqMgJNBkAUEg6Qg+9Bo03WIxg0jCYMwPFfe/GOwCENsIbVFGR7kTbax0gkgD/8KyFp8cmjvkFTEKe15tPSJdUFYnzehtyz7SceeKZT9/J7ItPegWEvFBUFOrcr+wIvrO/3jSUwwHihveYYpZoBpnEAPrUNhkdm7Eece3VSKItqF2WkU8NcUpPPgGUGFhEDPpkc/YopM668okRV127x5GTw5OZ40jCu1jxAIpqdDd9mmEb9juONTn1NF2kziBPJAkBc5v7/IJ6pfmeNSWvJkZqS6+AAIeD4Cl1U7mwqqLWeEO72yfxNOKVCN1dBZ2hBQFty1qAGnIfAlBOIIVNQF5VQR4AJQRLpypovCELZp7nXPmzN4+/74HfEuNVVFX1rYMRrpUd9gHkiaPftPHpJTTLefUERfNPyHyXzz2kwXV6WSALXVtc2fuiVg9AiPNHeGP/MWnu3hP0uq/P+zAsNWm8ETZV4UaEr2E+CYoM2jHuPuTLzEe0/yRogRlJYLr8oCLiBTUB0VO0xAe8BueUWWdzVj19t5YP8EY4v3/X9YGiIvfcUbOeM7FJn9E0rXvnwKoCfNKSdbb11E/qkW8c8bG6t7ULIKBaDHH+4Dpk52Fp06E6CtmMsAjbiTe6ZxB+1vhEFdBZlITK89dqWwtgAQe0g0YyaJYf/gXQForlVMrdwrkvzUWmm24tAnMRqCwu5r5N3gjXufsVegSu//DQ+ckZuas51lZNUczFmIRkvJ6GnFNNx5fvMzT38E8uMD7hDVAt6L5rUHL+qg93V5sm0TLwBtWTN7o3JPwM+6+QQZHQGXMGSk4YizKP/x2pcM/AMglMioBHzyDoIrJ56GhGmb/gkTG33LqNbFK45te/7nexKVzGxb6SRa07Z19fH0g2e92ia7aqynF6lkmsPmgKq9JqmspwwX0HDh/du2X7hSXmCxqSv/wQqA+FHeWBX1XUmq7yen0iA7yhRuCNSJVUgE+4YBC9m3ENOp/7I8S5TgKfgE8E3Y+WJcEUZ+VceTM3Xrp02UulsEmhKIrFpkhl6h1PNknk1Jg3JZoySliW151PMJmE9Hqymtw1P1BG8PPtnfhEA8ReitlDG/Klsip5wb5Txp+fqvepNh6xxOxHa9gJn7DgQsBoGL0/dglqH3YFor0nEWbjJNbfbnBNnXl80hNPLSVCnPewA0r4boYVK1Z4c9InPG/kkvbTDKv7opaqSnTQ2zqmpuXMvUZVGEHogkiCJqbKXkCBmcfmPV+IGz6vUVC8AfaLEOMfY5CIf4IldB4loE+mPY0UM2wkbT7P+afOUTNuu20R2Ebpu8IbfTVRkDPPjUwc/iuWtn5NUbTuvhH4J4ag6BpbG6iZsabsZROpC73hENKYfttBccGpdlO2qgZFYBPw2GIPRKtEACVOCqCD5rH489xXkCFbRaa51z2QMX1OFdmkkA9mIfYSvp03yfpJKiX8c3ZacgkM+z3R24u+6wlKgGRRsAoBcWSQDXE1W386ZJV8XjnPLfAI5qkoBWxVtKaqe9HkfQWcRiwI8q7M67nheZv3fH/xtFdhQp3NKSnQfUjZvXw9non1EJo2pvlOOeYnm1xxW9wpSAG5aX6FHgVAHqB5IqUqbUZO1jSQzhgZ8shVVfyaAynCwBQURJ/SyJjRSKms0+NHH/hy5pZXBa9HqEAursQ9PH59StQ3l7IymKFt+uhxI/ZPvcFCcVPYFrDx0KqBzaT3WxkAQ6UUtsHMWw4ia7o20qLrP4TpWQjzZwY+TGOc7bLK8iwsbQzGZHWuiQLwwgBBOdZAo48Py5t8GGcuz6ekUhhIdE733bu307Myv75L9TfeggKy1QqjxyWJCkqDOW1ABP4H22tpxHKmhiHmtM1GN310dU6RZsJpu51S7XbMZtoyW2aPQo+NSOCQW6IwgKIXJuAYIsZECeLehjjbn94PbiLCLwgNJGIeOJA8LmaQzlnm4PZzj6geKQ2TXgWFZYI9vyfeh0wqjIQ16cQOCs3y7bDNdXuynLTp2S9WuCAnLUdNIKtXEy1xMIuvT3o9L6Xltfg4MyuqlBR7cT1FRYNPI/h9wsE645y/fhL8DUmRv5wcvfnuBRzYdYnsqrCrQWEkUlQ63DUZENlEE4tugflHGmYlQiF6KZERm4GxHsy2Zr8yZiR/ngKlCEtBAwSGocBfhRpCP7kzdVmurfkLmTHzZHgaTjjYK/FpLBzizzX6lIqzhidKvxBuObSBkuzaAthgc9fv/SNHcFzw1F+fxkFPPrjUPEWINazH0AYD6Mp1FgZNZ5th+hX6sSa1KMoHWbOMpSHZmvZydkL68eWwparz2+GigO0pNWzXl1zD3zLB1BLwKQwH3rrGMZ1fivVeghGDzUChf9YI6OMj8sa6QGCYHSYyS2GPV6x56vseZsZwD9+Pg80LsSCHtvAAd2igEEUA4UPXRRaGQj+wqSgLk2MhBJGBagmFGNroSbFkb4injPvgSNyFKZNwOy4AQiKIXSc9dtzwhDPzJ6FlI+NZ5AXDBXWKth+E8+9yJdWWVczEsYq4t85sevt/sbZYXwCnn0BFu9Sly4vf0kPwzNr5VODcChSUUqDFISmTT9AKChwRBNqiCQIMTDJLo3stfmRRYbuwNr3UPyhk21G8OW17smh823rIC+suPeXaQwikxyJUyd1+dcrfp2c4XxpiMcPubhgr6ygU0FpeFXzigXrTZa/v9v+RZP3v5hPc5BiN2478EgeFYZjwRudAGg8xBBTKADfwR+aBxwHJL+KdcC9EXhntyAfOJsoGJvFIpi3j+dHt8ecibYntWnDHy3acp5mpHxWmPpIb3/KZTJvAdOrLJ3Es4mubvcqBc6YVOw8Li/+dfALaaQk2brMj0TsFwIjsIwEwBBTaDGMR0BZwEdE8aMgcugn8E1iOj+CfEH+DpWy16bahv86yZhwlk5ed8e583zsgnfjkwevo26ZaWn0+heUYMC2dXx7MvQS6DxsmqCPnAugfR+TXa9rxGKKd37bTmPdAJRf8asVjWHBeh0XZ3NOI9NJK4BAagKBBW+Lg/g4zRsOVFoCHDJa62xJi8g3uZEvmH+Ip857eeKNzCb0CQhKE+SQ7O+n83Bx58Sg46uKD88iET/QgFFJtsvAVx2GxotHMb9zt30LKJU6jAzZ0k/tvI+z/2bYbkP/svTggJXXsy+i/2LAJi4P9ZCYGJYHW3GsOIovck08YhvfbzGmOeK+62VjZRPYT9ym+7nD2Uhlydi5fWl/SuG5XTeoqTyAgwuFBvs9ce8klUhQAjIIyEpMS4/iFlwZfXXat6T4y3wVdQjdtjFS2UP/aBLXh/Tewz5sLpiq2kR4IAosqErwy2uWW0VtiOpIZE4wDYFRAs5LFkLp/hG3Uyu+ZJ3xZAJOVkeoSjo+oIeEEGOdpmawsTPvp9CEt5SpjIv6JbiRP5mjM4J80tnjlAzXGZe99HriXgHGx/RPcVp2Imz5ai4K+nJjBIEKCDkV4xQAzHHPg/wqmGZxGWGiFT46xnE1PyHxugnnC8YGAQbLrFxAQPrZ3LMY/uEgtzLW2uvwKx0PP7hdtUkB/gago+CcI/BP6X+f86NN/qa8eaxAmET4hG/X6ez+W7wvtmA/UPbtKFdsKsKxo6xCx5HPhHQIKCCTBxqJFKTQaTTsRSxtcqbZhf0g2Jh28p6Cgh79x4d1uN/0CQtKTdQGyGyXNktZ47VTqjtE2BYGGMrrziQFLBxpNaGu5sgVGPoaiECg68wmm3rrrqdtRsOYuHJATB8wb3QTX47EDlDQri1YMo3xXp/Ib0wVl6+p5S6M6hzIgQDRQYDdKTmEVf9PlSR9Pz3KvTrXGUYJKS3pKC9oEB2YDwoEG0+g/fxR8nZQLG/Z0Db6zL+Viz5ePI7+o2y88XKggNIA1MOJQq3Xfzbzyl/lH5UZiYS58P4CbAQNC8vrSMQHGz5h6ZFHa2tyE5p00Z+JhHlRXPjEw2NDk9EkV5413bt0ffASMgaIXn3g8+1IZz541SAiOBd7Qsy+FRA0/TEOxhhOGpGHrRgyb/FWBPfojeFEBQtCGbQnaO6uX8otzrS3NAdWgK5/AUBiRjXlkY/enX6EXD58TLwvxSewnW4m0XnihxsSde/Vp7G+/AslKVKeaQtLu55OYLBYYPS75eTY+q5Ia88PwdHA/L3b9OipAyKuwsw16bBWMtBJc1+WiokutQeSRKQbWTy7sTexaRHRP0C7NP7EakPRZPYc+2C+XAJ+YyYEhsgE8utzCqe30QwvXF+Fg/a2qINt0441w9nClOEakzQlvKmrCDpT8JCyYxBaiBoQUQ3Y35j2AuQWzUsouH+5/KtNmpvwqLYPTqmOgOFYJiBUNpmHFHwkbScbhg0PRFiKdjZ9BuU88iv1iGrhlutaS1AWGvTJtsHzS6h7y2o5jl7dEyxud2xMTICQDMvdEFrXuuzn1uSkJTVsNBhNsqtOTTzDi4WCQq90nVtQYbi7ZH3ycHBwKHSDq3IS+733NOzOk9vKfqcHAeNigFpvz10cR5AfNgDdOY2v2uszEgjNFgzxKETMgpI4Oh3aeH/1ySerdkywt54LIwMN4POLEWR/t6vFVh+kifMIer/Gi8uP0/3x+UrqcbAQfqH9SWYnNTPPfn0RB72z4eajB+xs9agkRHNPGWNKfNcYnHaJyiga9m2ZQgICf0MEnlHfhZVTROIsP+UTE6c0nNiMlV9bRaPvnEuGTBM0/6eckEowGmfHWR5fiQNOtWFITyXaa3uQ5mDiKZwXKOOQVjjXvQCl232DyCr87KEBIJoRPiOd7VX7ywdkjhZVZ8WY4F0IrevIJyJI1oKAIB4cy/vhhMMQnZBAB+6bCDel+DZz6zTzae/YhmDTM1NbFuycY5DPhDcTHba91Jr6x5u2kVljDisrfiFT8oAEhGZfYyaIWZu67KfX3+cnNjjijiYONGkJEaUWqTYR4FcZvZOO32wOLWnXGBZv2CXagUjxxDTlY1DPgtvdHIO/Bn+JgcDSc8dOfN1haRazxKGu5ZF2bdUp1pMWmnjXrP0YXQEgxDkeosFV3pdw9Oa75pEiZDLrNdwGyZEwN+7u4k7VetO8Et/rTqsDVVdARHFVd57swbrIEqzf+HAte2KSAQ/4G6Rm6/UNGLNvKmDOe4awTqvK7bVIISSH2T916D+ETsrgEQz6h/EvXItcu5/8ddZvYOJ4SBnLgZyBNEAEUiwnJn50VTPE8+huYrPFQXhtcYe2M/CIDpqTTa2CyRZhNTgzBz3K6+58+HUjJHWnALtEc46dNKX8UArZP+AkPwE9zLI8ig/6T6gYIKYosLhXaq/grJiYeeXu3czk6YS6udasGSzeWJ531m0CMb1fngBjjzmk6G2cQPGeE02ZfOPn0F95tKwcwpkEc+XUiuFBYNvz5Y0ZVDiJe1E37v6kr3BlpydtoqHtxJ/La86Obp+qST4QHXQEhZZTYc4BP7PRd84dseGt7g9fpxkPhvIgA3VcXAZEZZrIJRJQUxcqbLKfqAulQbE1JSQnJXzFl1dYhtBb+L1ZYg5JG2Mla7X9asOsCwEBaTbRjIOn+E9Jc1IYUF1dy9fWmi1JGFUg3ZwL86kPhBImYqv8EYQ+kjv8PwWcCy2/E2MsAAAAASUVORK5CYII=;" vertex="1" parent="1">
          <mxGeometry x="142.9" y="494.5" width="24.2" height="15" as="geometry" />
        </mxCell>
      </root>
    </mxGraphModel>
  </diagram>
</mxfile>
